<svg width="390" height="200" viewBox="0 0 390 200" fill="none" xmlns="http://www.w3.org/2000/svg">
<rect width="390" height="200" fill="#212121" fill-opacity="0.129412"/>
<rect x="43" y="9" width="307" height="182" rx="19" fill="#001535"/>
<g filter="url(#filter0_d_134_66)">
<path d="M80.1328 165.596L76.4092 165.98" stroke="#00378A"/>
<path d="M80.1328 165.596L76.4092 165.98" stroke="white" stroke-opacity="0.59"/>
</g>
<g filter="url(#filter1_d_134_66)">
<path d="M76.5052 165.965L77.0146 177.666" stroke="#00378A"/>
<path d="M76.5052 165.965L77.0146 177.666" stroke="white" stroke-opacity="0.59"/>
</g>
<g filter="url(#filter2_d_134_66)">
<path d="M76.576 167.124L74.065 167.676" stroke="#00378A"/>
<path d="M76.576 167.124L74.065 167.676" stroke="white" stroke-opacity="0.59"/>
</g>
<g filter="url(#filter3_d_134_66)">
<path d="M71.1184 161.418L74.0565 168.312" stroke="#00378A"/>
<path d="M71.1184 161.418L74.0565 168.312" stroke="white" stroke-opacity="0.59"/>
</g>
<g filter="url(#filter4_d_134_66)">
<path d="M70.8334 161.439L71.626 180.725" stroke="#00378A"/>
<path d="M70.8334 161.439L71.626 180.725" stroke="white" stroke-opacity="0.59"/>
</g>
<g filter="url(#filter5_d_134_66)">
<path d="M71.1185 161.418L68.3853 161.938" stroke="#00378A"/>
<path d="M71.1185 161.418L68.3853 161.938" stroke="white" stroke-opacity="0.59"/>
</g>
<g filter="url(#filter6_d_134_66)">
<path d="M68.4826 161.821L66.6588 178.388" stroke="#00378A"/>
<path d="M68.4826 161.821L66.6588 178.388" stroke="white" stroke-opacity="0.59"/>
</g>
<g filter="url(#filter7_d_134_66)">
<path d="M68.3107 164.044L64.2972 165.203L60.2837 166.362" stroke="#00378A"/>
<path d="M68.3107 164.044L64.2972 165.203L60.2837 166.362" stroke="white" stroke-opacity="0.59"/>
</g>
<g filter="url(#filter8_d_134_66)">
<path d="M74.0718 167.621L74.0565 178.398" stroke="#00378A"/>
<path d="M74.0718 167.621L74.0565 178.398" stroke="white" stroke-opacity="0.59"/>
</g>
<path d="M58.822 158.306C61.5456 162.272 60.2015 170.664 60.2612 172.301C60.3209 173.938 60.6817 175.28 61.3481 175.806" stroke="white"/>
<path d="M58.7426 158.317C60.5325 157.192 61.8749 154.787 62.2478 153.726C62.3472 153.405 62.7251 152.541 64.0377 151.652C65.3503 150.764 68.9102 150.492 70.5261 150.467" stroke="white"/>
<path d="M70.6008 183.052C70.1179 181.727 68.8914 178.715 67.2447 178.461" stroke="white"/>
<path d="M67.2446 178.461C65.5924 177.967 61.9823 176.755 61.2783 175.721" stroke="white"/>
<path d="M81.9975 158.377C79.2397 162.38 80.6007 170.849 80.5402 172.501C80.4798 174.153 80.1145 175.507 79.4396 176.039" stroke="white"/>
<path d="M82.0779 158.389C80.2655 157.253 78.9061 154.827 78.5285 153.756C78.4278 153.432 78.0452 152.56 76.7161 151.663C75.3869 150.766 71.7822 150.492 70.1459 150.467" stroke="white"/>
<path d="M70.6007 183.052C71.0021 181.715 72.0837 178.975 73.4526 178.718" stroke="white"/>
<path d="M73.4688 178.718C75.1418 178.219 78.7974 176.996 79.5103 175.952" stroke="white"/>
<path d="M64.6415 156V153.2H65.7815C66.0802 153.2 66.3415 153.26 66.5655 153.38C66.7922 153.497 66.9682 153.661 67.0935 153.872C67.2189 154.083 67.2815 154.325 67.2815 154.6C67.2815 154.875 67.2189 155.117 67.0935 155.328C66.9682 155.539 66.7922 155.704 66.5655 155.824C66.3415 155.941 66.0802 156 65.7815 156H64.6415ZM64.9375 155.744H65.7655C66.0135 155.744 66.2282 155.696 66.4095 155.6C66.5935 155.501 66.7362 155.367 66.8375 155.196C66.9389 155.023 66.9895 154.824 66.9895 154.6C66.9895 154.373 66.9389 154.175 66.8375 154.004C66.7362 153.833 66.5935 153.7 66.4095 153.604C66.2282 153.505 66.0135 153.456 65.7655 153.456H64.9375V155.744ZM68.7422 156.02C68.5396 156.02 68.3569 155.975 68.1942 155.884C68.0342 155.791 67.9076 155.664 67.8142 155.504C67.7209 155.341 67.6742 155.156 67.6742 154.948C67.6742 154.737 67.7209 154.552 67.8142 154.392C67.9076 154.232 68.0342 154.107 68.1942 154.016C68.3542 153.925 68.5369 153.88 68.7422 153.88C68.9502 153.88 69.1342 153.925 69.2942 154.016C69.4569 154.107 69.5836 154.232 69.6742 154.392C69.7676 154.552 69.8142 154.737 69.8142 154.948C69.8142 155.156 69.7676 155.341 69.6742 155.504C69.5836 155.664 69.4569 155.791 69.2942 155.884C69.1316 155.975 68.9476 156.02 68.7422 156.02ZM68.7422 155.768C68.8942 155.768 69.0289 155.735 69.1462 155.668C69.2636 155.599 69.3556 155.503 69.4222 155.38C69.4916 155.255 69.5262 155.111 69.5262 154.948C69.5262 154.783 69.4916 154.639 69.4222 154.516C69.3556 154.393 69.2636 154.299 69.1462 154.232C69.0289 154.163 68.8956 154.128 68.7462 154.128C68.5969 154.128 68.4636 154.163 68.3462 154.232C68.2289 154.299 68.1356 154.393 68.0662 154.516C67.9969 154.639 67.9622 154.783 67.9622 154.948C67.9622 155.111 67.9969 155.255 68.0662 155.38C68.1356 155.503 68.2289 155.599 68.3462 155.668C68.4636 155.735 68.5956 155.768 68.7422 155.768ZM70.394 156V153.9H70.666V154.472L70.638 154.372C70.6967 154.212 70.7954 154.091 70.934 154.008C71.0727 153.923 71.2447 153.88 71.45 153.88V154.156C71.4394 154.156 71.4287 154.156 71.418 154.156C71.4074 154.153 71.3967 154.152 71.386 154.152C71.1647 154.152 70.9914 154.22 70.866 154.356C70.7407 154.489 70.678 154.68 70.678 154.928V156H70.394ZM74.5923 153.88C74.7629 153.88 74.9109 153.913 75.0363 153.98C75.1643 154.044 75.2629 154.143 75.3323 154.276C75.4043 154.409 75.4403 154.577 75.4403 154.78V156H75.1563V154.808C75.1563 154.587 75.1029 154.42 74.9963 154.308C74.8923 154.193 74.7443 154.136 74.5523 154.136C74.4083 154.136 74.2829 154.167 74.1763 154.228C74.0723 154.287 73.9909 154.373 73.9323 154.488C73.8763 154.6 73.8483 154.736 73.8483 154.896V156H73.5643V154.808C73.5643 154.587 73.5109 154.42 73.4043 154.308C73.2976 154.193 73.1483 154.136 72.9563 154.136C72.8149 154.136 72.6909 154.167 72.5843 154.228C72.4776 154.287 72.3949 154.373 72.3363 154.488C72.2803 154.6 72.2523 154.736 72.2523 154.896V156H71.9683V153.9H72.2403V154.468L72.1963 154.368C72.2603 154.216 72.3629 154.097 72.5043 154.012C72.6483 153.924 72.8176 153.88 73.0123 153.88C73.2176 153.88 73.3923 153.932 73.5363 154.036C73.6803 154.137 73.7736 154.291 73.8163 154.496L73.7043 154.452C73.7656 154.281 73.8736 154.144 74.0283 154.04C74.1856 153.933 74.3736 153.88 74.5923 153.88ZM66.0792 160.304L66.0672 159.944L67.7632 158.2H68.1032L66.8672 159.496L66.6992 159.676L66.0792 160.304ZM65.8232 161V158.2H66.1192V161H65.8232ZM67.8352 161L66.6272 159.608L66.8272 159.392L68.1872 161H67.8352ZM68.6669 161V158.2H68.9109L70.8429 160.632H70.7149V158.2H71.0069V161H70.7629L68.8349 158.568H68.9629V161H68.6669ZM73.0488 161.024C72.6915 161.024 72.4102 160.921 72.2048 160.716C71.9995 160.511 71.8968 160.207 71.8968 159.804V158.2H72.1928V159.792C72.1928 160.123 72.2675 160.367 72.4168 160.524C72.5662 160.681 72.7768 160.76 73.0488 160.76C73.3235 160.76 73.5355 160.681 73.6848 160.524C73.8342 160.367 73.9088 160.123 73.9088 159.792V158.2H74.1968V159.804C74.1968 160.207 74.0942 160.511 73.8888 160.716C73.6862 160.921 73.4062 161.024 73.0488 161.024Z" fill="white"/>
<path d="M283.967 121.265L283.64 176.694M283.64 176.694L311.73 152.24L313.036 115.07M283.64 176.694L222.236 157.783L219.95 116.048" stroke="white" stroke-opacity="0.81"/>
<path d="M219.95 105.94L253.592 91.92M219.95 105.94L198.066 95.8327L233.015 82.1384L253.592 91.92M219.95 105.94L198.72 110.505L263.39 126.482L283.64 121.265M219.95 105.94L254.245 114.192M253.592 91.92L264.697 74.9651H290.826L324.141 79.5299L313.036 102.354M253.592 91.92L313.036 102.354M253.592 91.92L254.245 114.192M283.64 121.265L313.036 102.354M283.64 121.265L314.669 114.418L339.819 95.8327L313.036 102.354M283.64 121.265L254.245 114.192" stroke="white" stroke-opacity="0.81"/>
<path d="M75.1096 51.1222V34.8297M75.1096 34.8297V32.8428H86.8571L75.1096 34.8297Z" stroke="white" stroke-opacity="0.81"/>
<path d="M75.5013 41.9825L87.6403 41.5851V49.5327L84.5076 51.5196H75.5013" stroke="white" stroke-opacity="0.81"/>
<path d="M75.1096 50.7248V51.5196" stroke="white" stroke-opacity="0.81"/>
<path d="M75.1096 51.917V51.1223" stroke="white" stroke-opacity="0.81"/>
<path d="M86.4655 41.9825V48.738L84.5076 51.5196" stroke="white" stroke-opacity="0.81"/>
<path d="M97.0382 50.7249L103.486 35.2271M103.486 35.2271L104.478 32.8428L111.135 49.1354L103.486 35.2271Z" stroke="white" stroke-opacity="0.81"/>
<path d="M100.954 41.1878H106.436" stroke="white" stroke-opacity="0.81"/>
<path d="M255.237 53.9039L261.685 38.4061M261.685 38.4061L262.677 36.0218L269.334 52.3144L261.685 38.4061Z" stroke="white" stroke-opacity="0.81"/>
<path d="M259.153 44.3668H264.635" stroke="white" stroke-opacity="0.81"/>
<path d="M140.112 50.7249L146.56 35.2271M146.56 35.2271L147.552 32.8428L154.209 49.1354L146.56 35.2271Z" stroke="white" stroke-opacity="0.81"/>
<path d="M144.028 41.1878H149.51" stroke="white" stroke-opacity="0.81"/>
<path d="M120.533 51.917V33.6375H133.847V40.393L132.281 43.1746L130.323 43.9694H120.925" stroke="white" stroke-opacity="0.81"/>
<path d="M132.672 34.0348V40.7903L131.889 43.1746" stroke="white" stroke-opacity="0.81"/>
<path d="M120.533 51.5197H122.099L120.533 43.5721" stroke="white" stroke-opacity="0.81"/>
<path d="M163.607 33.6375L172.222 41.9825L181.228 32.8428" stroke="white" stroke-opacity="0.81"/>
<path d="M166.348 36.4191L170.264 41.9824L164.39 50.3274L172.222 42.3798" stroke="white" stroke-opacity="0.81"/>
<path d="M172.222 42.3798L180.445 50.7248L174.963 41.9825L180.837 33.2401" stroke="white" stroke-opacity="0.81"/>
<path d="M199.633 32.8428H191.801L189.452 35.6244V47.5458L191.801 50.7249H200.416L202.765 47.5458V35.6244L199.633 32.8428Z" stroke="white" stroke-opacity="0.81"/>
<path d="M199.633 50.7249L201.982 47.1485V37.214L200.416 35.2271L196.5 32.8428" stroke="white" stroke-opacity="0.81"/>
<path d="M212.163 53.1091L217.687 37.6113M217.687 37.6113L218.82 34.4323L225.477 52.3144L217.687 37.6113Z" stroke="white" stroke-opacity="0.81"/>
<path d="M234.875 34.4323V53.9039" stroke="white" stroke-opacity="0.81"/>
<path d="M245.056 36.0217L235.267 43.9693L246.231 53.109L238.399 43.9693L245.056 36.0217Z" stroke="white" stroke-opacity="0.81"/>
<defs>
<filter id="filter0_d_134_66" x="72.3594" y="165.099" width="11.8232" height="9.37854" filterUnits="userSpaceOnUse" color-interpolation-filters="sRGB">
<feFlood flood-opacity="0" result="BackgroundImageFix"/>
<feColorMatrix in="SourceAlpha" type="matrix" values="0 0 0 0 0 0 0 0 0 0 0 0 0 0 0 0 0 0 127 0" result="hardAlpha"/>
<feOffset dy="4"/>
<feGaussianBlur stdDeviation="2"/>
<feComposite in2="hardAlpha" operator="out"/>
<feColorMatrix type="matrix" values="0 0 0 0 0 0 0 0 0 0 0 0 0 0 0 0 0 0 0.25 0"/>
<feBlend mode="normal" in2="BackgroundImageFix" result="effect1_dropShadow_134_66"/>
<feBlend mode="normal" in="SourceGraphic" in2="effect1_dropShadow_134_66" result="shape"/>
</filter>
<filter id="filter1_d_134_66" x="72.0056" y="165.944" width="9.50851" height="19.7422" filterUnits="userSpaceOnUse" color-interpolation-filters="sRGB">
<feFlood flood-opacity="0" result="BackgroundImageFix"/>
<feColorMatrix in="SourceAlpha" type="matrix" values="0 0 0 0 0 0 0 0 0 0 0 0 0 0 0 0 0 0 127 0" result="hardAlpha"/>
<feOffset dy="4"/>
<feGaussianBlur stdDeviation="2"/>
<feComposite in2="hardAlpha" operator="out"/>
<feColorMatrix type="matrix" values="0 0 0 0 0 0 0 0 0 0 0 0 0 0 0 0 0 0 0.25 0"/>
<feBlend mode="normal" in2="BackgroundImageFix" result="effect1_dropShadow_134_66"/>
<feBlend mode="normal" in="SourceGraphic" in2="effect1_dropShadow_134_66" result="shape"/>
</filter>
<filter id="filter2_d_134_66" x="69.962" y="166.636" width="10.717" height="9.52884" filterUnits="userSpaceOnUse" color-interpolation-filters="sRGB">
<feFlood flood-opacity="0" result="BackgroundImageFix"/>
<feColorMatrix in="SourceAlpha" type="matrix" values="0 0 0 0 0 0 0 0 0 0 0 0 0 0 0 0 0 0 127 0" result="hardAlpha"/>
<feOffset dy="4"/>
<feGaussianBlur stdDeviation="2"/>
<feComposite in2="hardAlpha" operator="out"/>
<feColorMatrix type="matrix" values="0 0 0 0 0 0 0 0 0 0 0 0 0 0 0 0 0 0 0.25 0"/>
<feBlend mode="normal" in2="BackgroundImageFix" result="effect1_dropShadow_134_66"/>
<feBlend mode="normal" in="SourceGraphic" in2="effect1_dropShadow_134_66" result="shape"/>
</filter>
<filter id="filter3_d_134_66" x="66.658" y="161.22" width="11.8589" height="15.2888" filterUnits="userSpaceOnUse" color-interpolation-filters="sRGB">
<feFlood flood-opacity="0" result="BackgroundImageFix"/>
<feColorMatrix in="SourceAlpha" type="matrix" values="0 0 0 0 0 0 0 0 0 0 0 0 0 0 0 0 0 0 127 0" result="hardAlpha"/>
<feOffset dy="4"/>
<feGaussianBlur stdDeviation="2"/>
<feComposite in2="hardAlpha" operator="out"/>
<feColorMatrix type="matrix" values="0 0 0 0 0 0 0 0 0 0 0 0 0 0 0 0 0 0 0.25 0"/>
<feBlend mode="normal" in2="BackgroundImageFix" result="effect1_dropShadow_134_66"/>
<feBlend mode="normal" in="SourceGraphic" in2="effect1_dropShadow_134_66" result="shape"/>
</filter>
<filter id="filter4_d_134_66" x="66.3338" y="161.42" width="9.79175" height="27.3246" filterUnits="userSpaceOnUse" color-interpolation-filters="sRGB">
<feFlood flood-opacity="0" result="BackgroundImageFix"/>
<feColorMatrix in="SourceAlpha" type="matrix" values="0 0 0 0 0 0 0 0 0 0 0 0 0 0 0 0 0 0 127 0" result="hardAlpha"/>
<feOffset dy="4"/>
<feGaussianBlur stdDeviation="2"/>
<feComposite in2="hardAlpha" operator="out"/>
<feColorMatrix type="matrix" values="0 0 0 0 0 0 0 0 0 0 0 0 0 0 0 0 0 0 0.25 0"/>
<feBlend mode="normal" in2="BackgroundImageFix" result="effect1_dropShadow_134_66"/>
<feBlend mode="normal" in="SourceGraphic" in2="effect1_dropShadow_134_66" result="shape"/>
</filter>
<filter id="filter5_d_134_66" x="64.3009" y="160.928" width="10.902" height="9.50003" filterUnits="userSpaceOnUse" color-interpolation-filters="sRGB">
<feFlood flood-opacity="0" result="BackgroundImageFix"/>
<feColorMatrix in="SourceAlpha" type="matrix" values="0 0 0 0 0 0 0 0 0 0 0 0 0 0 0 0 0 0 127 0" result="hardAlpha"/>
<feOffset dy="4"/>
<feGaussianBlur stdDeviation="2"/>
<feComposite in2="hardAlpha" operator="out"/>
<feColorMatrix type="matrix" values="0 0 0 0 0 0 0 0 0 0 0 0 0 0 0 0 0 0 0.25 0"/>
<feBlend mode="normal" in2="BackgroundImageFix" result="effect1_dropShadow_134_66"/>
<feBlend mode="normal" in="SourceGraphic" in2="effect1_dropShadow_134_66" result="shape"/>
</filter>
<filter id="filter6_d_134_66" x="62.1618" y="161.766" width="10.8178" height="24.6764" filterUnits="userSpaceOnUse" color-interpolation-filters="sRGB">
<feFlood flood-opacity="0" result="BackgroundImageFix"/>
<feColorMatrix in="SourceAlpha" type="matrix" values="0 0 0 0 0 0 0 0 0 0 0 0 0 0 0 0 0 0 127 0" result="hardAlpha"/>
<feOffset dy="4"/>
<feGaussianBlur stdDeviation="2"/>
<feComposite in2="hardAlpha" operator="out"/>
<feColorMatrix type="matrix" values="0 0 0 0 0 0 0 0 0 0 0 0 0 0 0 0 0 0 0.25 0"/>
<feBlend mode="normal" in2="BackgroundImageFix" result="effect1_dropShadow_134_66"/>
<feBlend mode="normal" in="SourceGraphic" in2="effect1_dropShadow_134_66" result="shape"/>
</filter>
<filter id="filter7_d_134_66" x="56.1427" y="163.563" width="16.3089" height="11.279" filterUnits="userSpaceOnUse" color-interpolation-filters="sRGB">
<feFlood flood-opacity="0" result="BackgroundImageFix"/>
<feColorMatrix in="SourceAlpha" type="matrix" values="0 0 0 0 0 0 0 0 0 0 0 0 0 0 0 0 0 0 127 0" result="hardAlpha"/>
<feOffset dy="4"/>
<feGaussianBlur stdDeviation="2"/>
<feComposite in2="hardAlpha" operator="out"/>
<feColorMatrix type="matrix" values="0 0 0 0 0 0 0 0 0 0 0 0 0 0 0 0 0 0 0.25 0"/>
<feBlend mode="normal" in2="BackgroundImageFix" result="effect1_dropShadow_134_66"/>
<feBlend mode="normal" in="SourceGraphic" in2="effect1_dropShadow_134_66" result="shape"/>
</filter>
<filter id="filter8_d_134_66" x="69.5565" y="167.618" width="9.01529" height="18.7818" filterUnits="userSpaceOnUse" color-interpolation-filters="sRGB">
<feFlood flood-opacity="0" result="BackgroundImageFix"/>
<feColorMatrix in="SourceAlpha" type="matrix" values="0 0 0 0 0 0 0 0 0 0 0 0 0 0 0 0 0 0 127 0" result="hardAlpha"/>
<feOffset dy="4"/>
<feGaussianBlur stdDeviation="2"/>
<feComposite in2="hardAlpha" operator="out"/>
<feColorMatrix type="matrix" values="0 0 0 0 0 0 0 0 0 0 0 0 0 0 0 0 0 0 0.25 0"/>
<feBlend mode="normal" in2="BackgroundImageFix" result="effect1_dropShadow_134_66"/>
<feBlend mode="normal" in="SourceGraphic" in2="effect1_dropShadow_134_66" result="shape"/>
</filter>
</defs>
</svg>
