<svg width="205" height="24" viewBox="0 0 205 24" fill="none" xmlns="http://www.w3.org/2000/svg">
<path d="M1.46933 20.9059V3.92344M1.46933 3.92344V1.8524H13.7142L1.46933 3.92344Z" stroke="white" stroke-opacity="0.81"/>
<path d="M1.87753 11.3791L14.5306 10.9649V19.249L11.2653 21.3201H1.87753" stroke="white" stroke-opacity="0.81"/>
<path d="M1.46936 20.4917V21.3201" stroke="white" stroke-opacity="0.81"/>
<path d="M1.46936 21.7344V20.9059" stroke="white" stroke-opacity="0.81"/>
<path d="M13.3061 11.3792V18.4207L11.2653 21.3202" stroke="white" stroke-opacity="0.81"/>
<path d="M24.3265 20.4917L31.0476 4.33764M31.0476 4.33764L32.0816 1.8524L39.0204 18.8349L31.0476 4.33764Z" stroke="white" stroke-opacity="0.81"/>
<path d="M28.4081 10.5508H34.1224" stroke="white" stroke-opacity="0.81"/>
<path d="M189.224 23.8054L195.946 7.65127M195.946 7.65127L196.98 5.16603L203.918 22.1485L195.946 7.65127Z" stroke="white" stroke-opacity="0.81"/>
<path d="M193.306 13.8644H199.02" stroke="white" stroke-opacity="0.81"/>
<path d="M69.2244 20.4917L75.9455 4.33764M75.9455 4.33764L76.9795 1.8524L83.9183 18.8349L75.9455 4.33764Z" stroke="white" stroke-opacity="0.81"/>
<path d="M73.3061 10.5508H79.0204" stroke="white" stroke-opacity="0.81"/>
<path d="M48.8163 21.7343V2.68079H62.6938V9.72231L61.0612 12.6218L59.0204 13.4502H49.2244" stroke="white" stroke-opacity="0.81"/>
<path d="M61.4693 3.09496V10.1365L60.653 12.6217" stroke="white" stroke-opacity="0.81"/>
<path d="M48.8163 21.3202H50.449L48.8163 13.0361" stroke="white" stroke-opacity="0.81"/>
<path d="M93.7143 2.68082L102.694 11.3792L112.082 1.8524" stroke="white" stroke-opacity="0.81"/>
<path d="M96.5714 5.58018L100.653 11.3791L94.5306 20.0774L102.694 11.7933" stroke="white" stroke-opacity="0.81"/>
<path d="M102.694 11.7933L111.265 20.4917L105.551 11.3791L111.673 2.26656" stroke="white" stroke-opacity="0.81"/>
<path d="M131.265 1.8524H123.102L120.653 4.75185V17.1781L123.102 20.4917H132.082L134.531 17.1781V4.75185L131.265 1.8524Z" stroke="white" stroke-opacity="0.81"/>
<path d="M131.265 20.4917L133.714 16.7639V6.40868L132.082 4.33764L128 1.8524" stroke="white" stroke-opacity="0.81"/>
<path d="M144.326 22.977L150.084 6.82287M150.084 6.82287L151.265 3.50922L158.204 22.1485L150.084 6.82287Z" stroke="white" stroke-opacity="0.81"/>
<path d="M168 3.50922V23.8054" stroke="white" stroke-opacity="0.81"/>
<path d="M178.612 5.16592L168.408 13.4501L179.837 22.9768L171.673 13.4501L178.612 5.16592Z" stroke="white" stroke-opacity="0.81"/>
</svg>
