<svg width="65" height="83" viewBox="0 0 65 83" fill="none" xmlns="http://www.w3.org/2000/svg">
<g filter="url(#filter0_d_472_2)">
<path d="M58.5688 37.6785L48.5842 38.6089" stroke="#16382B"/>
<path d="M58.5688 37.6785L48.5842 38.6089" stroke="#FFCE0C"/>
</g>
<g filter="url(#filter1_d_472_2)">
<path d="M48.8416 38.5731L50.2077 66.9403" stroke="#16382B"/>
<path d="M48.8416 38.5731L50.2077 66.9403" stroke="url(#paint0_linear_472_2)"/>
</g>
<g filter="url(#filter2_d_472_2)">
<path d="M49.0315 41.383L42.2983 42.7211" stroke="#16382B"/>
<path d="M49.0315 41.383L42.2983 42.7211" stroke="#FFCE0C"/>
</g>
<g filter="url(#filter3_d_472_2)">
<path d="M34.3975 27.5493L42.2758 44.262" stroke="#16382B"/>
<path d="M34.3975 27.5493L42.2758 44.262" stroke="#FFCE0C"/>
</g>
<g filter="url(#filter4_d_472_2)">
<path d="M33.6333 27.6009L35.7586 74.3571" stroke="#16382B"/>
<path d="M33.6333 27.6009L35.7586 74.3571" stroke="url(#paint1_linear_472_2)"/>
</g>
<g filter="url(#filter5_d_472_2)">
<path d="M34.3973 27.5492L27.0686 28.8094" stroke="#16382B"/>
<path d="M34.3973 27.5492L27.0686 28.8094" stroke="url(#paint2_linear_472_2)"/>
</g>
<g filter="url(#filter6_d_472_2)">
<path d="M27.3299 28.527L22.4394 68.6903" stroke="#16382B"/>
<path d="M27.3299 28.527L22.4394 68.6903" stroke="url(#paint3_linear_472_2)"/>
</g>
<g filter="url(#filter7_d_472_2)">
<path d="M26.8684 33.9149L16.1064 36.7248L5.34443 39.5348" stroke="#16382B"/>
<path d="M26.8684 33.9149L16.1064 36.7248L5.34443 39.5348" stroke="url(#paint4_linear_472_2)"/>
</g>
<g filter="url(#filter8_d_472_2)">
<path d="M42.3207 42.5883L42.2754 68.7143" stroke="#16382B"/>
<path d="M42.3207 42.5883L42.2754 68.7143" stroke="url(#paint5_linear_472_2)"/>
</g>
<path d="M1.42554 20.0035C8.72856 29.6194 5.12445 49.9661 5.2846 53.9343C5.44474 57.9026 6.41201 61.1561 8.19909 62.4328" stroke="#FFCE0C"/>
<path d="M1.42554 20.0035C8.72856 29.6194 5.12445 49.9661 5.2846 53.9343C5.44474 57.9026 6.41201 61.1561 8.19909 62.4328" stroke="black" stroke-opacity="0.2"/>
<path d="M1.2124 20.0318C6.01193 17.3027 9.61157 11.4735 10.6115 8.9C10.8781 8.12197 11.8913 6.02727 15.411 3.87273C18.9306 1.71818 28.4764 1.05985 32.8093 1" stroke="#FFCE0C"/>
<path d="M1.2124 20.0318C6.01193 17.3027 9.61157 11.4735 10.6115 8.9C10.8781 8.12197 11.8913 6.02727 15.411 3.87273C18.9306 1.71818 28.4764 1.05985 32.8093 1" stroke="black" stroke-opacity="0.2"/>
<path d="M33.0094 80C31.7147 76.7859 28.4258 69.4853 24.0103 68.8682" stroke="#FFCE0C"/>
<path d="M33.0094 80C31.7147 76.7859 28.4258 69.4853 24.0103 68.8682" stroke="black" stroke-opacity="0.2"/>
<path d="M24.0104 68.8683C19.58 67.671 9.89972 64.7334 8.01196 62.2251" stroke="#FFCE0C"/>
<path d="M24.0104 68.8683C19.58 67.671 9.89972 64.7334 8.01196 62.2251" stroke="black" stroke-opacity="0.2"/>
<path d="M63.5693 20.1779C56.1743 29.882 59.8238 50.4153 59.6617 54.4199C59.4995 58.4246 58.5201 61.708 56.7105 62.9964" stroke="#FFCE0C"/>
<path d="M63.5693 20.1779C56.1743 29.882 59.8238 50.4153 59.6617 54.4199C59.4995 58.4246 58.5201 61.708 56.7105 62.9964" stroke="black" stroke-opacity="0.2"/>
<path d="M63.7847 20.2064C58.9247 17.4523 55.2797 11.5696 54.2672 8.97248C53.9972 8.18731 52.9712 6.07339 49.4073 3.89908C45.8433 1.72477 36.1773 1.0604 31.7899 1" stroke="#FFCE0C"/>
<path d="M63.7847 20.2064C58.9247 17.4523 55.2797 11.5696 54.2672 8.97248C53.9972 8.18731 52.9712 6.07339 49.4073 3.89908C45.8433 1.72477 36.1773 1.0604 31.7899 1" stroke="black" stroke-opacity="0.2"/>
<path d="M33.0097 80C34.086 76.7564 36.9862 70.1136 40.6567 69.4908" stroke="#FFCE0C"/>
<path d="M33.0097 80C34.086 76.7564 36.9862 70.1136 40.6567 69.4908" stroke="black" stroke-opacity="0.2"/>
<path d="M40.6998 69.4909C45.1859 68.2827 54.9881 65.3181 56.8997 62.7867" stroke="#FFCE0C"/>
<path d="M40.6998 69.4909C45.1859 68.2827 54.9881 65.3181 56.8997 62.7867" stroke="black" stroke-opacity="0.2"/>
<defs>
<filter id="filter0_d_472_2" x="44.5381" y="37.1807" width="18.0767" height="9.92615" filterUnits="userSpaceOnUse" color-interpolation-filters="sRGB">
<feFlood flood-opacity="0" result="BackgroundImageFix"/>
<feColorMatrix in="SourceAlpha" type="matrix" values="0 0 0 0 0 0 0 0 0 0 0 0 0 0 0 0 0 0 127 0" result="hardAlpha"/>
<feOffset dy="4"/>
<feGaussianBlur stdDeviation="2"/>
<feComposite in2="hardAlpha" operator="out"/>
<feColorMatrix type="matrix" values="0 0 0 0 0 0 0 0 0 0 0 0 0 0 0 0 0 0 0.25 0"/>
<feBlend mode="normal" in2="BackgroundImageFix" result="effect1_dropShadow_472_2"/>
<feBlend mode="normal" in="SourceGraphic" in2="effect1_dropShadow_472_2" result="shape"/>
</filter>
<filter id="filter1_d_472_2" x="44.3423" y="38.5493" width="10.365" height="36.4148" filterUnits="userSpaceOnUse" color-interpolation-filters="sRGB">
<feFlood flood-opacity="0" result="BackgroundImageFix"/>
<feColorMatrix in="SourceAlpha" type="matrix" values="0 0 0 0 0 0 0 0 0 0 0 0 0 0 0 0 0 0 127 0" result="hardAlpha"/>
<feOffset dy="4"/>
<feGaussianBlur stdDeviation="2"/>
<feComposite in2="hardAlpha" operator="out"/>
<feColorMatrix type="matrix" values="0 0 0 0 0 0 0 0 0 0 0 0 0 0 0 0 0 0 0.25 0"/>
<feBlend mode="normal" in2="BackgroundImageFix" result="effect1_dropShadow_472_2"/>
<feBlend mode="normal" in="SourceGraphic" in2="effect1_dropShadow_472_2" result="shape"/>
</filter>
<filter id="filter2_d_472_2" x="38.2019" y="40.8926" width="14.926" height="10.319" filterUnits="userSpaceOnUse" color-interpolation-filters="sRGB">
<feFlood flood-opacity="0" result="BackgroundImageFix"/>
<feColorMatrix in="SourceAlpha" type="matrix" values="0 0 0 0 0 0 0 0 0 0 0 0 0 0 0 0 0 0 127 0" result="hardAlpha"/>
<feOffset dy="4"/>
<feGaussianBlur stdDeviation="2"/>
<feComposite in2="hardAlpha" operator="out"/>
<feColorMatrix type="matrix" values="0 0 0 0 0 0 0 0 0 0 0 0 0 0 0 0 0 0 0.25 0"/>
<feBlend mode="normal" in2="BackgroundImageFix" result="effect1_dropShadow_472_2"/>
<feBlend mode="normal" in="SourceGraphic" in2="effect1_dropShadow_472_2" result="shape"/>
</filter>
<filter id="filter3_d_472_2" x="29.9424" y="27.3281" width="16.7886" height="25.155" filterUnits="userSpaceOnUse" color-interpolation-filters="sRGB">
<feFlood flood-opacity="0" result="BackgroundImageFix"/>
<feColorMatrix in="SourceAlpha" type="matrix" values="0 0 0 0 0 0 0 0 0 0 0 0 0 0 0 0 0 0 127 0" result="hardAlpha"/>
<feOffset dy="4"/>
<feGaussianBlur stdDeviation="2"/>
<feComposite in2="hardAlpha" operator="out"/>
<feColorMatrix type="matrix" values="0 0 0 0 0 0 0 0 0 0 0 0 0 0 0 0 0 0 0.25 0"/>
<feBlend mode="normal" in2="BackgroundImageFix" result="effect1_dropShadow_472_2"/>
<feBlend mode="normal" in="SourceGraphic" in2="effect1_dropShadow_472_2" result="shape"/>
</filter>
<filter id="filter4_d_472_2" x="29.1338" y="27.5784" width="11.1243" height="54.8011" filterUnits="userSpaceOnUse" color-interpolation-filters="sRGB">
<feFlood flood-opacity="0" result="BackgroundImageFix"/>
<feColorMatrix in="SourceAlpha" type="matrix" values="0 0 0 0 0 0 0 0 0 0 0 0 0 0 0 0 0 0 127 0" result="hardAlpha"/>
<feOffset dy="4"/>
<feGaussianBlur stdDeviation="2"/>
<feComposite in2="hardAlpha" operator="out"/>
<feColorMatrix type="matrix" values="0 0 0 0 0 0 0 0 0 0 0 0 0 0 0 0 0 0 0.25 0"/>
<feBlend mode="normal" in2="BackgroundImageFix" result="effect1_dropShadow_472_2"/>
<feBlend mode="normal" in="SourceGraphic" in2="effect1_dropShadow_472_2" result="shape"/>
</filter>
<filter id="filter5_d_472_2" x="23.0017" y="27.0585" width="15.4626" height="10.2416" filterUnits="userSpaceOnUse" color-interpolation-filters="sRGB">
<feFlood flood-opacity="0" result="BackgroundImageFix"/>
<feColorMatrix in="SourceAlpha" type="matrix" values="0 0 0 0 0 0 0 0 0 0 0 0 0 0 0 0 0 0 127 0" result="hardAlpha"/>
<feOffset dy="4"/>
<feGaussianBlur stdDeviation="2"/>
<feComposite in2="hardAlpha" operator="out"/>
<feColorMatrix type="matrix" values="0 0 0 0 0 0 0 0 0 0 0 0 0 0 0 0 0 0 0.25 0"/>
<feBlend mode="normal" in2="BackgroundImageFix" result="effect1_dropShadow_472_2"/>
<feBlend mode="normal" in="SourceGraphic" in2="effect1_dropShadow_472_2" result="shape"/>
</filter>
<filter id="filter6_d_472_2" x="17.9431" y="28.4681" width="13.8831" height="48.2811" filterUnits="userSpaceOnUse" color-interpolation-filters="sRGB">
<feFlood flood-opacity="0" result="BackgroundImageFix"/>
<feColorMatrix in="SourceAlpha" type="matrix" values="0 0 0 0 0 0 0 0 0 0 0 0 0 0 0 0 0 0 127 0" result="hardAlpha"/>
<feOffset dy="4"/>
<feGaussianBlur stdDeviation="2"/>
<feComposite in2="hardAlpha" operator="out"/>
<feColorMatrix type="matrix" values="0 0 0 0 0 0 0 0 0 0 0 0 0 0 0 0 0 0 0.25 0"/>
<feBlend mode="normal" in2="BackgroundImageFix" result="effect1_dropShadow_472_2"/>
<feBlend mode="normal" in="SourceGraphic" in2="effect1_dropShadow_472_2" result="shape"/>
</filter>
<filter id="filter7_d_472_2" x="1.21753" y="33.431" width="29.7776" height="14.5875" filterUnits="userSpaceOnUse" color-interpolation-filters="sRGB">
<feFlood flood-opacity="0" result="BackgroundImageFix"/>
<feColorMatrix in="SourceAlpha" type="matrix" values="0 0 0 0 0 0 0 0 0 0 0 0 0 0 0 0 0 0 127 0" result="hardAlpha"/>
<feOffset dy="4"/>
<feGaussianBlur stdDeviation="2"/>
<feComposite in2="hardAlpha" operator="out"/>
<feColorMatrix type="matrix" values="0 0 0 0 0 0 0 0 0 0 0 0 0 0 0 0 0 0 0.25 0"/>
<feBlend mode="normal" in2="BackgroundImageFix" result="effect1_dropShadow_472_2"/>
<feBlend mode="normal" in="SourceGraphic" in2="effect1_dropShadow_472_2" result="shape"/>
</filter>
<filter id="filter8_d_472_2" x="37.7754" y="42.5869" width="9.04541" height="34.1288" filterUnits="userSpaceOnUse" color-interpolation-filters="sRGB">
<feFlood flood-opacity="0" result="BackgroundImageFix"/>
<feColorMatrix in="SourceAlpha" type="matrix" values="0 0 0 0 0 0 0 0 0 0 0 0 0 0 0 0 0 0 127 0" result="hardAlpha"/>
<feOffset dy="4"/>
<feGaussianBlur stdDeviation="2"/>
<feComposite in2="hardAlpha" operator="out"/>
<feColorMatrix type="matrix" values="0 0 0 0 0 0 0 0 0 0 0 0 0 0 0 0 0 0 0.25 0"/>
<feBlend mode="normal" in2="BackgroundImageFix" result="effect1_dropShadow_472_2"/>
<feBlend mode="normal" in="SourceGraphic" in2="effect1_dropShadow_472_2" result="shape"/>
</filter>
<linearGradient id="paint0_linear_472_2" x1="48.8951" y1="38.8433" x2="51.3998" y2="38.8849" gradientUnits="userSpaceOnUse">
<stop offset="0.192708" stop-color="#FFCE0C"/>
<stop offset="0.604167" stop-color="#519872"/>
</linearGradient>
<linearGradient id="paint1_linear_472_2" x1="33.6786" y1="27.849" x2="35.4193" y2="27.8701" gradientUnits="userSpaceOnUse">
<stop offset="0.192708" stop-color="#FFCE0C"/>
<stop offset="0.604167" stop-color="#519872"/>
</linearGradient>
<linearGradient id="paint2_linear_472_2" x1="49.9541" y1="21.5758" x2="19.793" y2="36.2665" gradientUnits="userSpaceOnUse">
<stop stop-color="#FFCE0C"/>
<stop offset="0.338542" stop-color="#FFCE0C"/>
<stop offset="0.541667" stop-color="#FFCE0C"/>
<stop offset="0.697917" stop-color="#FFCE0C"/>
<stop offset="1" stop-color="#FFCE0C"/>
</linearGradient>
<linearGradient id="paint3_linear_472_2" x1="27.3299" y1="28.527" x2="20.7939" y2="28.5116" gradientUnits="userSpaceOnUse">
<stop offset="0.192708" stop-color="#FFCE0C"/>
<stop offset="0.604167" stop-color="#519872"/>
</linearGradient>
<linearGradient id="paint4_linear_472_2" x1="26.3462" y1="33.9045" x2="1.43364" y2="49.2962" gradientUnits="userSpaceOnUse">
<stop offset="0.125" stop-color="#FFCE0C"/>
<stop offset="0.53125" stop-color="#519872" stop-opacity="0.83"/>
</linearGradient>
<linearGradient id="paint5_linear_472_2" x1="42.3206" y1="42.5883" x2="43.6174" y2="42.6156" gradientUnits="userSpaceOnUse">
<stop offset="0.192708" stop-color="#FFCE0C"/>
<stop offset="0.604167" stop-color="#519872"/>
</linearGradient>
</defs>
</svg>
