<svg width="390" height="232" viewBox="0 0 390 232" fill="none" xmlns="http://www.w3.org/2000/svg">
<rect y="28.2638" width="390" height="200" fill="#212121"/>
<rect width="390" height="231.205" fill="#16382B"/>
<path d="M214.125 92.8174L213.71 163.233M213.71 163.233L249.393 132.167L251.053 84.9475M213.71 163.233L135.704 139.209L132.8 86.1901" stroke="white" stroke-opacity="0.81"/>
<path d="M132.8 73.3497L175.537 55.5388M132.8 73.3497L105 60.5093L149.397 43.1126L175.537 55.5388M132.8 73.3497L105.83 79.1486L187.985 99.4447L213.71 92.8174M132.8 73.3497L176.367 83.8323M175.537 55.5388L189.644 34H222.838L265.16 39.7989L251.053 68.7934M175.537 55.5388L251.053 68.7934M175.537 55.5388L176.367 83.8323M213.71 92.8174L251.053 68.7934M213.71 92.8174L253.127 84.1191L285.077 60.5093L251.053 68.7934M213.71 92.8174L176.367 83.8323" stroke="white" stroke-opacity="0.81"/>
</svg>
