<svg width="390" height="200" viewBox="0 0 390 200" fill="none" xmlns="http://www.w3.org/2000/svg">
<rect width="390" height="200" fill="#212121"/>
<rect x="35" y="5" width="320" height="189.707" rx="19" fill="#001535"/>
<g filter="url(#filter0_d_134_66)">
<path d="M73.7053 168.227L69.824 168.627" stroke="#00378A"/>
<path d="M73.7053 168.227L69.824 168.627" stroke="white" stroke-opacity="0.59"/>
</g>
<g filter="url(#filter1_d_134_66)">
<path d="M69.924 168.612L70.455 180.808" stroke="#00378A"/>
<path d="M69.924 168.612L70.455 180.808" stroke="white" stroke-opacity="0.59"/>
</g>
<g filter="url(#filter2_d_134_66)">
<path d="M69.9978 169.82L67.3804 170.395" stroke="#00378A"/>
<path d="M69.9978 169.82L67.3804 170.395" stroke="white" stroke-opacity="0.59"/>
</g>
<g filter="url(#filter3_d_134_66)">
<path d="M64.3091 163.872L67.3716 171.058" stroke="#00378A"/>
<path d="M64.3091 163.872L67.3716 171.058" stroke="white" stroke-opacity="0.59"/>
</g>
<g filter="url(#filter4_d_134_66)">
<path d="M64.012 163.895L64.8382 183.997" stroke="#00378A"/>
<path d="M64.012 163.895L64.8382 183.997" stroke="white" stroke-opacity="0.59"/>
</g>
<g filter="url(#filter5_d_134_66)">
<path d="M64.3092 163.872L61.4603 164.414" stroke="#00378A"/>
<path d="M64.3092 163.872L61.4603 164.414" stroke="white" stroke-opacity="0.59"/>
</g>
<g filter="url(#filter6_d_134_66)">
<path d="M61.5617 164.293L59.6606 181.56" stroke="#00378A"/>
<path d="M61.5617 164.293L59.6606 181.56" stroke="white" stroke-opacity="0.59"/>
</g>
<g filter="url(#filter7_d_134_66)">
<path d="M61.3825 166.609L57.199 167.817L53.0155 169.025" stroke="#00378A"/>
<path d="M61.3825 166.609L57.199 167.817L53.0155 169.025" stroke="white" stroke-opacity="0.59"/>
</g>
<g filter="url(#filter8_d_134_66)">
<path d="M67.3876 170.338L67.3716 181.571" stroke="#00378A"/>
<path d="M67.3876 170.338L67.3716 181.571" stroke="white" stroke-opacity="0.59"/>
</g>
<path d="M51.492 160.628C54.3309 164.762 52.9299 173.51 52.9921 175.216C53.0544 176.922 53.4304 178.321 54.1251 178.87" stroke="white"/>
<path d="M51.4092 160.64C53.2749 159.467 54.6742 156.961 55.0629 155.854C55.1665 155.52 55.5604 154.619 56.9286 153.693C58.2967 152.767 62.0074 152.483 63.6917 152.458" stroke="white"/>
<path d="M63.7695 186.423C63.2662 185.041 61.9878 181.902 60.2713 181.637" stroke="white"/>
<path d="M60.2713 181.637C58.5491 181.122 54.7861 179.859 54.0523 178.781" stroke="white"/>
<path d="M75.6489 160.703C72.7742 164.875 74.1929 173.703 74.1299 175.425C74.0668 177.147 73.6861 178.558 72.9826 179.112" stroke="white"/>
<path d="M75.7327 160.715C73.8435 159.531 72.4266 157.002 72.033 155.885C71.9281 155.548 71.5292 154.639 70.1438 153.704C68.7584 152.769 65.001 152.484 63.2955 152.458" stroke="white"/>
<path d="M63.7695 186.423C64.1879 185.028 65.3152 182.172 66.7421 181.904" stroke="white"/>
<path d="M66.759 181.904C68.5029 181.385 72.3133 180.11 73.0563 179.022" stroke="white"/>
<path d="M57.7849 159.14V156.34H58.9249C59.2236 156.34 59.4849 156.4 59.7089 156.52C59.9356 156.637 60.1116 156.801 60.2369 157.012C60.3622 157.223 60.4249 157.465 60.4249 157.74C60.4249 158.015 60.3622 158.257 60.2369 158.468C60.1116 158.679 59.9356 158.844 59.7089 158.964C59.4849 159.081 59.2236 159.14 58.9249 159.14H57.7849ZM58.0809 158.884H58.9089C59.1569 158.884 59.3716 158.836 59.5529 158.74C59.7369 158.641 59.8796 158.507 59.9809 158.336C60.0822 158.163 60.1329 157.964 60.1329 157.74C60.1329 157.513 60.0822 157.315 59.9809 157.144C59.8796 156.973 59.7369 156.84 59.5529 156.744C59.3716 156.645 59.1569 156.596 58.9089 156.596H58.0809V158.884ZM61.8856 159.16C61.6829 159.16 61.5002 159.115 61.3376 159.024C61.1776 158.931 61.0509 158.804 60.9576 158.644C60.8642 158.481 60.8176 158.296 60.8176 158.088C60.8176 157.877 60.8642 157.692 60.9576 157.532C61.0509 157.372 61.1776 157.247 61.3376 157.156C61.4976 157.065 61.6802 157.02 61.8856 157.02C62.0936 157.02 62.2776 157.065 62.4376 157.156C62.6002 157.247 62.7269 157.372 62.8176 157.532C62.9109 157.692 62.9576 157.877 62.9576 158.088C62.9576 158.296 62.9109 158.481 62.8176 158.644C62.7269 158.804 62.6002 158.931 62.4376 159.024C62.2749 159.115 62.0909 159.16 61.8856 159.16ZM61.8856 158.908C62.0376 158.908 62.1722 158.875 62.2896 158.808C62.4069 158.739 62.4989 158.643 62.5656 158.52C62.6349 158.395 62.6696 158.251 62.6696 158.088C62.6696 157.923 62.6349 157.779 62.5656 157.656C62.4989 157.533 62.4069 157.439 62.2896 157.372C62.1722 157.303 62.0389 157.268 61.8896 157.268C61.7402 157.268 61.6069 157.303 61.4896 157.372C61.3722 157.439 61.2789 157.533 61.2096 157.656C61.1402 157.779 61.1056 157.923 61.1056 158.088C61.1056 158.251 61.1402 158.395 61.2096 158.52C61.2789 158.643 61.3722 158.739 61.4896 158.808C61.6069 158.875 61.7389 158.908 61.8856 158.908ZM63.5374 159.14V157.04H63.8094V157.612L63.7814 157.512C63.8401 157.352 63.9387 157.231 64.0774 157.148C64.2161 157.063 64.3881 157.02 64.5934 157.02V157.296C64.5827 157.296 64.5721 157.296 64.5614 157.296C64.5507 157.293 64.5401 157.292 64.5294 157.292C64.3081 157.292 64.1347 157.36 64.0094 157.496C63.8841 157.629 63.8214 157.82 63.8214 158.068V159.14H63.5374ZM67.7356 157.02C67.9063 157.02 68.0543 157.053 68.1796 157.12C68.3076 157.184 68.4063 157.283 68.4756 157.416C68.5476 157.549 68.5836 157.717 68.5836 157.92V159.14H68.2996V157.948C68.2996 157.727 68.2463 157.56 68.1396 157.448C68.0356 157.333 67.8876 157.276 67.6956 157.276C67.5516 157.276 67.4263 157.307 67.3196 157.368C67.2156 157.427 67.1343 157.513 67.0756 157.628C67.0196 157.74 66.9916 157.876 66.9916 158.036V159.14H66.7076V157.948C66.7076 157.727 66.6543 157.56 66.5476 157.448C66.4409 157.333 66.2916 157.276 66.0996 157.276C65.9583 157.276 65.8343 157.307 65.7276 157.368C65.6209 157.427 65.5383 157.513 65.4796 157.628C65.4236 157.74 65.3956 157.876 65.3956 158.036V159.14H65.1116V157.04H65.3836V157.608L65.3396 157.508C65.4036 157.356 65.5063 157.237 65.6476 157.152C65.7916 157.064 65.9609 157.02 66.1556 157.02C66.3609 157.02 66.5356 157.072 66.6796 157.176C66.8236 157.277 66.9169 157.431 66.9596 157.636L66.8476 157.592C66.9089 157.421 67.0169 157.284 67.1716 157.18C67.3289 157.073 67.5169 157.02 67.7356 157.02ZM59.2225 163.444L59.2105 163.084L60.9065 161.34H61.2465L60.0105 162.636L59.8425 162.816L59.2225 163.444ZM58.9665 164.14V161.34H59.2625V164.14H58.9665ZM60.9785 164.14L59.7705 162.748L59.9705 162.532L61.3305 164.14H60.9785ZM61.8103 164.14V161.34H62.0543L63.9863 163.772H63.8583V161.34H64.1503V164.14H63.9063L61.9783 161.708H62.1063V164.14H61.8103ZM66.1922 164.164C65.8349 164.164 65.5535 164.061 65.3482 163.856C65.1429 163.651 65.0402 163.347 65.0402 162.944V161.34H65.3362V162.932C65.3362 163.263 65.4109 163.507 65.5602 163.664C65.7095 163.821 65.9202 163.9 66.1922 163.9C66.4669 163.9 66.6789 163.821 66.8282 163.664C66.9775 163.507 67.0522 163.263 67.0522 162.932V161.34H67.3402V162.944C67.3402 163.347 67.2375 163.651 67.0322 163.856C66.8295 164.061 66.5495 164.164 66.1922 164.164Z" fill="white"/>
<path d="M286.171 122.019L285.83 179.795M285.83 179.795L315.109 154.306L316.471 115.561M285.83 179.795L221.826 160.083L219.443 116.581" stroke="white" stroke-opacity="0.81"/>
<path d="M219.443 106.045L254.509 91.4313M219.443 106.045L196.633 95.5096L233.061 81.2354L254.509 91.4313M219.443 106.045L197.314 110.803L264.723 127.457L285.83 122.019M219.443 106.045L255.19 114.646M254.509 91.4313L266.084 73.7585H293.32L328.046 78.5165L316.471 102.307M254.509 91.4313L316.471 102.307M254.509 91.4313L255.19 114.646M285.83 122.019L316.471 102.307M285.83 122.019L318.173 114.882L344.388 95.5096L316.471 102.307M285.83 122.019L255.19 114.646" stroke="white" stroke-opacity="0.81"/>
<path d="M68.4693 48.9059V31.9234M68.4693 31.9234V29.8524H80.7142L68.4693 31.9234Z" stroke="white" stroke-opacity="0.81"/>
<path d="M68.8775 39.3791L81.5306 38.9649V47.249L78.2653 49.3201H68.8775" stroke="white" stroke-opacity="0.81"/>
<path d="M68.4694 48.4917V49.3201" stroke="white" stroke-opacity="0.81"/>
<path d="M68.4694 49.7344V48.9059" stroke="white" stroke-opacity="0.81"/>
<path d="M80.3061 39.3792V46.4207L78.2653 49.3202" stroke="white" stroke-opacity="0.81"/>
<path d="M91.3265 48.4917L98.0476 32.3376M98.0476 32.3376L99.0816 29.8524L106.02 46.8349L98.0476 32.3376Z" stroke="white" stroke-opacity="0.81"/>
<path d="M95.4081 38.5508H101.122" stroke="white" stroke-opacity="0.81"/>
<path d="M256.224 51.8054L262.946 35.6513M262.946 35.6513L263.98 33.166L270.918 50.1485L262.946 35.6513Z" stroke="white" stroke-opacity="0.81"/>
<path d="M260.306 41.8644H266.02" stroke="white" stroke-opacity="0.81"/>
<path d="M136.224 48.4917L142.946 32.3376M142.946 32.3376L143.98 29.8524L150.918 46.8349L142.946 32.3376Z" stroke="white" stroke-opacity="0.81"/>
<path d="M140.306 38.5508H146.02" stroke="white" stroke-opacity="0.81"/>
<path d="M115.816 49.7343V30.6808H129.694V37.7223L128.061 40.6218L126.02 41.4502H116.224" stroke="white" stroke-opacity="0.81"/>
<path d="M128.469 31.095V38.1365L127.653 40.6217" stroke="white" stroke-opacity="0.81"/>
<path d="M115.816 49.3202H117.449L115.816 41.0361" stroke="white" stroke-opacity="0.81"/>
<path d="M160.714 30.6808L169.694 39.3792L179.082 29.8524" stroke="white" stroke-opacity="0.81"/>
<path d="M163.571 33.5802L167.653 39.3791L161.531 48.0774L169.694 39.7933" stroke="white" stroke-opacity="0.81"/>
<path d="M169.694 39.7933L178.265 48.4917L172.551 39.3791L178.673 30.2666" stroke="white" stroke-opacity="0.81"/>
<path d="M198.265 29.8524H190.102L187.653 32.7519V45.1781L190.102 48.4917H199.082L201.531 45.1781V32.7519L198.265 29.8524Z" stroke="white" stroke-opacity="0.81"/>
<path d="M198.265 48.4917L200.714 44.7639V34.4087L199.082 32.3376L195 29.8524" stroke="white" stroke-opacity="0.81"/>
<path d="M211.326 50.977L217.084 34.8229M217.084 34.8229L218.265 31.5092L225.204 50.1485L217.084 34.8229Z" stroke="white" stroke-opacity="0.81"/>
<path d="M235 31.5092V51.8054" stroke="white" stroke-opacity="0.81"/>
<path d="M245.612 33.1659L235.408 41.4501L246.837 50.9768L238.673 41.4501L245.612 33.1659Z" stroke="white" stroke-opacity="0.81"/>
<defs>
<filter id="filter0_d_134_66" x="65.7742" y="167.73" width="11.9809" height="9.39481" filterUnits="userSpaceOnUse" color-interpolation-filters="sRGB">
<feFlood flood-opacity="0" result="BackgroundImageFix"/>
<feColorMatrix in="SourceAlpha" type="matrix" values="0 0 0 0 0 0 0 0 0 0 0 0 0 0 0 0 0 0 127 0" result="hardAlpha"/>
<feOffset dy="4"/>
<feGaussianBlur stdDeviation="2"/>
<feComposite in2="hardAlpha" operator="out"/>
<feColorMatrix type="matrix" values="0 0 0 0 0 0 0 0 0 0 0 0 0 0 0 0 0 0 0.25 0"/>
<feBlend mode="normal" in2="BackgroundImageFix" result="effect1_dropShadow_134_66"/>
<feBlend mode="normal" in="SourceGraphic" in2="effect1_dropShadow_134_66" result="shape"/>
</filter>
<filter id="filter1_d_134_66" x="65.4244" y="168.591" width="9.53009" height="20.2377" filterUnits="userSpaceOnUse" color-interpolation-filters="sRGB">
<feFlood flood-opacity="0" result="BackgroundImageFix"/>
<feColorMatrix in="SourceAlpha" type="matrix" values="0 0 0 0 0 0 0 0 0 0 0 0 0 0 0 0 0 0 127 0" result="hardAlpha"/>
<feOffset dy="4"/>
<feGaussianBlur stdDeviation="2"/>
<feComposite in2="hardAlpha" operator="out"/>
<feColorMatrix type="matrix" values="0 0 0 0 0 0 0 0 0 0 0 0 0 0 0 0 0 0 0.25 0"/>
<feBlend mode="normal" in2="BackgroundImageFix" result="effect1_dropShadow_134_66"/>
<feBlend mode="normal" in="SourceGraphic" in2="effect1_dropShadow_134_66" result="shape"/>
</filter>
<filter id="filter2_d_134_66" x="63.2775" y="169.331" width="10.8234" height="9.55222" filterUnits="userSpaceOnUse" color-interpolation-filters="sRGB">
<feFlood flood-opacity="0" result="BackgroundImageFix"/>
<feColorMatrix in="SourceAlpha" type="matrix" values="0 0 0 0 0 0 0 0 0 0 0 0 0 0 0 0 0 0 127 0" result="hardAlpha"/>
<feOffset dy="4"/>
<feGaussianBlur stdDeviation="2"/>
<feComposite in2="hardAlpha" operator="out"/>
<feColorMatrix type="matrix" values="0 0 0 0 0 0 0 0 0 0 0 0 0 0 0 0 0 0 0.25 0"/>
<feBlend mode="normal" in2="BackgroundImageFix" result="effect1_dropShadow_134_66"/>
<feBlend mode="normal" in="SourceGraphic" in2="effect1_dropShadow_134_66" result="shape"/>
</filter>
<filter id="filter3_d_134_66" x="59.8487" y="163.675" width="11.9834" height="15.5807" filterUnits="userSpaceOnUse" color-interpolation-filters="sRGB">
<feFlood flood-opacity="0" result="BackgroundImageFix"/>
<feColorMatrix in="SourceAlpha" type="matrix" values="0 0 0 0 0 0 0 0 0 0 0 0 0 0 0 0 0 0 127 0" result="hardAlpha"/>
<feOffset dy="4"/>
<feGaussianBlur stdDeviation="2"/>
<feComposite in2="hardAlpha" operator="out"/>
<feColorMatrix type="matrix" values="0 0 0 0 0 0 0 0 0 0 0 0 0 0 0 0 0 0 0.25 0"/>
<feBlend mode="normal" in2="BackgroundImageFix" result="effect1_dropShadow_134_66"/>
<feBlend mode="normal" in="SourceGraphic" in2="effect1_dropShadow_134_66" result="shape"/>
</filter>
<filter id="filter4_d_134_66" x="59.5125" y="163.875" width="9.82532" height="28.1413" filterUnits="userSpaceOnUse" color-interpolation-filters="sRGB">
<feFlood flood-opacity="0" result="BackgroundImageFix"/>
<feColorMatrix in="SourceAlpha" type="matrix" values="0 0 0 0 0 0 0 0 0 0 0 0 0 0 0 0 0 0 127 0" result="hardAlpha"/>
<feOffset dy="4"/>
<feGaussianBlur stdDeviation="2"/>
<feComposite in2="hardAlpha" operator="out"/>
<feColorMatrix type="matrix" values="0 0 0 0 0 0 0 0 0 0 0 0 0 0 0 0 0 0 0.25 0"/>
<feBlend mode="normal" in2="BackgroundImageFix" result="effect1_dropShadow_134_66"/>
<feBlend mode="normal" in="SourceGraphic" in2="effect1_dropShadow_134_66" result="shape"/>
</filter>
<filter id="filter5_d_134_66" x="57.3759" y="163.382" width="11.0177" height="9.52206" filterUnits="userSpaceOnUse" color-interpolation-filters="sRGB">
<feFlood flood-opacity="0" result="BackgroundImageFix"/>
<feColorMatrix in="SourceAlpha" type="matrix" values="0 0 0 0 0 0 0 0 0 0 0 0 0 0 0 0 0 0 127 0" result="hardAlpha"/>
<feOffset dy="4"/>
<feGaussianBlur stdDeviation="2"/>
<feComposite in2="hardAlpha" operator="out"/>
<feColorMatrix type="matrix" values="0 0 0 0 0 0 0 0 0 0 0 0 0 0 0 0 0 0 0.25 0"/>
<feBlend mode="normal" in2="BackgroundImageFix" result="effect1_dropShadow_134_66"/>
<feBlend mode="normal" in="SourceGraphic" in2="effect1_dropShadow_134_66" result="shape"/>
</filter>
<filter id="filter6_d_134_66" x="55.1636" y="164.238" width="10.895" height="25.3779" filterUnits="userSpaceOnUse" color-interpolation-filters="sRGB">
<feFlood flood-opacity="0" result="BackgroundImageFix"/>
<feColorMatrix in="SourceAlpha" type="matrix" values="0 0 0 0 0 0 0 0 0 0 0 0 0 0 0 0 0 0 127 0" result="hardAlpha"/>
<feOffset dy="4"/>
<feGaussianBlur stdDeviation="2"/>
<feComposite in2="hardAlpha" operator="out"/>
<feColorMatrix type="matrix" values="0 0 0 0 0 0 0 0 0 0 0 0 0 0 0 0 0 0 0.25 0"/>
<feBlend mode="normal" in2="BackgroundImageFix" result="effect1_dropShadow_134_66"/>
<feBlend mode="normal" in="SourceGraphic" in2="effect1_dropShadow_134_66" result="shape"/>
</filter>
<filter id="filter7_d_134_66" x="48.8746" y="166.129" width="16.6488" height="11.3772" filterUnits="userSpaceOnUse" color-interpolation-filters="sRGB">
<feFlood flood-opacity="0" result="BackgroundImageFix"/>
<feColorMatrix in="SourceAlpha" type="matrix" values="0 0 0 0 0 0 0 0 0 0 0 0 0 0 0 0 0 0 127 0" result="hardAlpha"/>
<feOffset dy="4"/>
<feGaussianBlur stdDeviation="2"/>
<feComposite in2="hardAlpha" operator="out"/>
<feColorMatrix type="matrix" values="0 0 0 0 0 0 0 0 0 0 0 0 0 0 0 0 0 0 0.25 0"/>
<feBlend mode="normal" in2="BackgroundImageFix" result="effect1_dropShadow_134_66"/>
<feBlend mode="normal" in="SourceGraphic" in2="effect1_dropShadow_134_66" result="shape"/>
</filter>
<filter id="filter8_d_134_66" x="62.8716" y="170.335" width="9.01593" height="19.2382" filterUnits="userSpaceOnUse" color-interpolation-filters="sRGB">
<feFlood flood-opacity="0" result="BackgroundImageFix"/>
<feColorMatrix in="SourceAlpha" type="matrix" values="0 0 0 0 0 0 0 0 0 0 0 0 0 0 0 0 0 0 127 0" result="hardAlpha"/>
<feOffset dy="4"/>
<feGaussianBlur stdDeviation="2"/>
<feComposite in2="hardAlpha" operator="out"/>
<feColorMatrix type="matrix" values="0 0 0 0 0 0 0 0 0 0 0 0 0 0 0 0 0 0 0.25 0"/>
<feBlend mode="normal" in2="BackgroundImageFix" result="effect1_dropShadow_134_66"/>
<feBlend mode="normal" in="SourceGraphic" in2="effect1_dropShadow_134_66" result="shape"/>
</filter>
</defs>
</svg>
