<svg width="156" height="18" viewBox="0 0 156 18" fill="none" xmlns="http://www.w3.org/2000/svg">
<path d="M0.666781 17V0.199999H13.3388V2.24H3.04278V7.04H8.27478C10.2748 7.04 11.7948 7.456 12.8348 8.288C13.8748 9.12 14.3948 10.328 14.3948 11.912C14.3948 13.544 13.8268 14.8 12.6908 15.68C11.5708 16.56 9.96278 17 7.86678 17H0.666781ZM3.04278 15.104H7.77078C9.16278 15.104 10.2108 14.84 10.9148 14.312C11.6348 13.784 11.9948 13 11.9948 11.96C11.9948 9.944 10.5868 8.936 7.77078 8.936H3.04278V15.104ZM15.8935 17L23.5015 0.199999H25.8775L33.5095 17H30.9895L24.1975 1.544H25.1575L18.3655 17H15.8935ZM19.1335 12.8L19.7815 10.88H29.2375L29.9335 12.8H19.1335ZM36.409 17V0.199999H42.961C44.433 0.199999 45.689 0.431999 46.729 0.896C47.769 1.36 48.569 2.032 49.129 2.912C49.689 3.792 49.969 4.84 49.969 6.056C49.969 7.272 49.689 8.32 49.129 9.2C48.569 10.064 47.769 10.736 46.729 11.216C45.689 11.68 44.433 11.912 42.961 11.912H37.729L38.809 10.784V17H36.409ZM38.809 11.024L37.729 9.824H42.889C44.425 9.824 45.585 9.496 46.369 8.84C47.169 8.184 47.569 7.256 47.569 6.056C47.569 4.856 47.169 3.928 46.369 3.272C45.585 2.616 44.425 2.288 42.889 2.288H37.729L38.809 1.088V11.024ZM50.1357 17L57.7437 0.199999H60.1197L67.7517 17H65.2317L58.4397 1.544H59.3997L52.6077 17H50.1357ZM53.3757 12.8L54.0237 10.88H63.4797L64.1757 12.8H53.3757ZM68.0543 0.199999H70.8143L75.2063 6.344L79.5983 0.199999H82.4063L76.7183 8.264L82.8623 17H80.0303L75.2063 10.304L70.4063 17H67.6463L73.7663 8.36L68.0543 0.199999ZM92.8362 17.192C91.5562 17.192 90.3642 16.976 89.2602 16.544C88.1722 16.112 87.2282 15.512 86.4282 14.744C85.6282 13.96 85.0042 13.048 84.5562 12.008C84.1082 10.968 83.8842 9.832 83.8842 8.6C83.8842 7.368 84.1082 6.232 84.5562 5.192C85.0042 4.152 85.6282 3.248 86.4282 2.48C87.2282 1.696 88.1722 1.088 89.2602 0.655999C90.3482 0.224 91.5402 0.0079999 92.8362 0.0079999C94.1162 0.0079999 95.2922 0.224 96.3642 0.655999C97.4522 1.072 98.3962 1.672 99.1962 2.456C100.012 3.224 100.636 4.128 101.068 5.168C101.516 6.208 101.74 7.352 101.74 8.6C101.74 9.848 101.516 10.992 101.068 12.032C100.636 13.072 100.012 13.984 99.1962 14.768C98.3962 15.536 97.4522 16.136 96.3642 16.568C95.2922 16.984 94.1162 17.192 92.8362 17.192ZM92.8362 15.056C93.7642 15.056 94.6202 14.896 95.4042 14.576C96.2042 14.256 96.8922 13.808 97.4682 13.232C98.0602 12.64 98.5162 11.952 98.8362 11.168C99.1722 10.384 99.3402 9.528 99.3402 8.6C99.3402 7.672 99.1722 6.816 98.8362 6.032C98.5162 5.248 98.0602 4.568 97.4682 3.992C96.8922 3.4 96.2042 2.944 95.4042 2.624C94.6202 2.304 93.7642 2.144 92.8362 2.144C91.8922 2.144 91.0202 2.304 90.2202 2.624C89.4362 2.944 88.7482 3.4 88.1562 3.992C87.5642 4.568 87.1002 5.248 86.7642 6.032C86.4442 6.816 86.2842 7.672 86.2842 8.6C86.2842 9.528 86.4442 10.384 86.7642 11.168C87.1002 11.952 87.5642 12.64 88.1562 13.232C88.7482 13.808 89.4362 14.256 90.2202 14.576C91.0202 14.896 91.8922 15.056 92.8362 15.056ZM104.359 17.192C104.119 17.192 103.879 17.176 103.639 17.144C103.399 17.112 103.135 17.064 102.847 17L103.015 14.864C103.271 14.928 103.527 14.96 103.783 14.96C104.487 14.96 105.047 14.68 105.463 14.12C105.879 13.56 106.183 12.712 106.375 11.576C106.583 10.44 106.719 9.008 106.783 7.28L107.047 0.199999H118.879V17H116.527V1.664L117.103 2.288H108.583L109.111 1.64L108.919 7.208C108.871 8.872 108.759 10.328 108.583 11.576C108.407 12.824 108.143 13.864 107.791 14.696C107.439 15.528 106.983 16.152 106.423 16.568C105.879 16.984 105.191 17.192 104.359 17.192ZM135.416 17L129.32 8.72L131.264 7.52L138.152 17H135.416ZM124.112 17V0.199999H126.464V17H124.112ZM125.744 9.608V7.496H131.192V9.608H125.744ZM131.48 8.864L129.272 8.528L135.296 0.199999H137.864L131.48 8.864ZM138.05 17L145.658 0.199999H148.034L155.666 17H153.146L146.354 1.544H147.314L140.522 17H138.05ZM141.29 12.8L141.938 10.88H151.394L152.09 12.8H141.29Z" fill="url(#paint0_linear_273_5)"/>
<defs>
<linearGradient id="paint0_linear_273_5" x1="77" y1="-12" x2="77" y2="28" gradientUnits="userSpaceOnUse">
<stop stop-color="#FFCE0C"/>
<stop offset="1" stop-color="#519872"/>
</linearGradient>
</defs>
</svg>
