<svg width="390" height="232" viewBox="0 0 390 232" fill="none" xmlns="http://www.w3.org/2000/svg">
<rect y="29" width="390" height="200" fill="#212121"/>
<rect y="0.73616" width="390" height="231.205" fill="#001535"/>
<g filter="url(#filter0_d_134_66)">
<path d="M47.172 199.669L42.4417 200.157" stroke="#00378A"/>
<path d="M47.172 199.669L42.4417 200.157" stroke="white" stroke-opacity="0.59"/>
</g>
<g filter="url(#filter1_d_134_66)">
<path d="M42.5636 200.138L43.2108 215.002" stroke="#00378A"/>
<path d="M42.5636 200.138L43.2108 215.002" stroke="white" stroke-opacity="0.59"/>
</g>
<g filter="url(#filter2_d_134_66)">
<path d="M42.6536 201.61L39.4636 202.312" stroke="#00378A"/>
<path d="M42.6536 201.61L39.4636 202.312" stroke="white" stroke-opacity="0.59"/>
</g>
<g filter="url(#filter3_d_134_66)">
<path d="M35.7204 194.362L39.4528 203.119" stroke="#00378A"/>
<path d="M35.7204 194.362L39.4528 203.119" stroke="white" stroke-opacity="0.59"/>
</g>
<g filter="url(#filter4_d_134_66)">
<path d="M35.3584 194.389L36.3653 218.888" stroke="#00378A"/>
<path d="M35.3584 194.389L36.3653 218.888" stroke="white" stroke-opacity="0.59"/>
</g>
<g filter="url(#filter5_d_134_66)">
<path d="M35.7205 194.362L32.2484 195.022" stroke="#00378A"/>
<path d="M35.7205 194.362L32.2484 195.022" stroke="white" stroke-opacity="0.59"/>
</g>
<g filter="url(#filter6_d_134_66)">
<path d="M32.372 194.874L30.0551 215.919" stroke="#00378A"/>
<path d="M32.372 194.874L30.0551 215.919" stroke="white" stroke-opacity="0.59"/>
</g>
<g filter="url(#filter7_d_134_66)">
<path d="M32.1536 197.697L27.055 199.17L21.9564 200.642" stroke="#00378A"/>
<path d="M32.1536 197.697L27.055 199.17L21.9564 200.642" stroke="white" stroke-opacity="0.59"/>
</g>
<g filter="url(#filter8_d_134_66)">
<path d="M39.4723 202.242L39.4528 215.932" stroke="#00378A"/>
<path d="M39.4723 202.242L39.4528 215.932" stroke="white" stroke-opacity="0.59"/>
</g>
<path d="M20.0997 190.408C23.5595 195.446 21.8521 206.108 21.9279 208.187C22.0038 210.266 22.4621 211.971 23.3087 212.64" stroke="white"/>
<path d="M19.9987 190.423C22.2725 188.993 23.9779 185.938 24.4516 184.59C24.5779 184.182 25.0579 183.085 26.7254 181.956C28.3929 180.827 32.9153 180.482 34.968 180.45" stroke="white"/>
<path d="M35.0629 221.845C34.4495 220.161 32.8913 216.335 30.7994 216.012" stroke="white"/>
<path d="M30.7994 216.012C28.7004 215.385 24.1143 213.846 23.22 212.531" stroke="white"/>
<path d="M49.5408 190.499C46.0373 195.584 47.7663 206.343 47.6895 208.441C47.6127 210.54 47.1486 212.26 46.2913 212.935" stroke="white"/>
<path d="M49.643 190.514C47.3405 189.071 45.6137 185.989 45.134 184.628C45.0061 184.216 44.52 183.109 42.8315 181.969C41.143 180.83 36.5637 180.482 34.4851 180.45" stroke="white"/>
<path d="M35.0628 221.845C35.5727 220.146 36.9467 216.665 38.6857 216.338" stroke="white"/>
<path d="M38.7062 216.338C40.8316 215.705 45.4755 214.152 46.3811 212.826" stroke="white"/>
<path d="M24.3084 190.938V188.138H25.4484C25.7471 188.138 26.0084 188.198 26.2324 188.318C26.4591 188.435 26.6351 188.599 26.7604 188.81C26.8858 189.021 26.9484 189.263 26.9484 189.538C26.9484 189.813 26.8858 190.055 26.7604 190.266C26.6351 190.477 26.4591 190.642 26.2324 190.762C26.0084 190.879 25.7471 190.938 25.4484 190.938H24.3084ZM24.6044 190.682H25.4324C25.6804 190.682 25.8951 190.634 26.0764 190.538C26.2604 190.439 26.4031 190.305 26.5044 190.134C26.6058 189.961 26.6564 189.762 26.6564 189.538C26.6564 189.311 26.6058 189.113 26.5044 188.942C26.4031 188.771 26.2604 188.638 26.0764 188.542C25.8951 188.443 25.6804 188.394 25.4324 188.394H24.6044V190.682ZM28.4091 190.958C28.2065 190.958 28.0238 190.913 27.8611 190.822C27.7011 190.729 27.5745 190.602 27.4811 190.442C27.3878 190.279 27.3411 190.094 27.3411 189.886C27.3411 189.675 27.3878 189.49 27.4811 189.33C27.5745 189.17 27.7011 189.045 27.8611 188.954C28.0211 188.863 28.2038 188.818 28.4091 188.818C28.6171 188.818 28.8011 188.863 28.9611 188.954C29.1238 189.045 29.2505 189.17 29.3411 189.33C29.4345 189.49 29.4811 189.675 29.4811 189.886C29.4811 190.094 29.4345 190.279 29.3411 190.442C29.2505 190.602 29.1238 190.729 28.9611 190.822C28.7985 190.913 28.6145 190.958 28.4091 190.958ZM28.4091 190.706C28.5611 190.706 28.6958 190.673 28.8131 190.606C28.9305 190.537 29.0225 190.441 29.0891 190.318C29.1585 190.193 29.1931 190.049 29.1931 189.886C29.1931 189.721 29.1585 189.577 29.0891 189.454C29.0225 189.331 28.9305 189.237 28.8131 189.17C28.6958 189.101 28.5625 189.066 28.4131 189.066C28.2638 189.066 28.1305 189.101 28.0131 189.17C27.8958 189.237 27.8025 189.331 27.7331 189.454C27.6638 189.577 27.6291 189.721 27.6291 189.886C27.6291 190.049 27.6638 190.193 27.7331 190.318C27.8025 190.441 27.8958 190.537 28.0131 190.606C28.1305 190.673 28.2625 190.706 28.4091 190.706ZM30.0609 190.938V188.838H30.3329V189.41L30.3049 189.31C30.3636 189.15 30.4623 189.029 30.6009 188.946C30.7396 188.861 30.9116 188.818 31.1169 188.818V189.094C31.1063 189.094 31.0956 189.094 31.0849 189.094C31.0743 189.091 31.0636 189.09 31.0529 189.09C30.8316 189.09 30.6583 189.158 30.5329 189.294C30.4076 189.427 30.3449 189.618 30.3449 189.866V190.938H30.0609ZM34.2591 188.818C34.4298 188.818 34.5778 188.851 34.7031 188.918C34.8311 188.982 34.9298 189.081 34.9991 189.214C35.0711 189.347 35.1071 189.515 35.1071 189.718V190.938H34.8231V189.746C34.8231 189.525 34.7698 189.358 34.6631 189.246C34.5591 189.131 34.4111 189.074 34.2191 189.074C34.0751 189.074 33.9498 189.105 33.8431 189.166C33.7391 189.225 33.6578 189.311 33.5991 189.426C33.5431 189.538 33.5151 189.674 33.5151 189.834V190.938H33.2311V189.746C33.2311 189.525 33.1778 189.358 33.0711 189.246C32.9645 189.131 32.8151 189.074 32.6231 189.074C32.4818 189.074 32.3578 189.105 32.2511 189.166C32.1445 189.225 32.0618 189.311 32.0031 189.426C31.9471 189.538 31.9191 189.674 31.9191 189.834V190.938H31.6351V188.838H31.9071V189.406L31.8631 189.306C31.9271 189.154 32.0298 189.035 32.1711 188.95C32.3151 188.862 32.4845 188.818 32.6791 188.818C32.8845 188.818 33.0591 188.87 33.2031 188.974C33.3471 189.075 33.4405 189.229 33.4831 189.434L33.3711 189.39C33.4325 189.219 33.5405 189.082 33.6951 188.978C33.8525 188.871 34.0405 188.818 34.2591 188.818ZM36.1933 190.242L36.1813 189.882L37.8773 188.138H38.2173L36.9813 189.434L36.8133 189.614L36.1933 190.242ZM35.9373 190.938V188.138H36.2333V190.938H35.9373ZM37.9493 190.938L36.7413 189.546L36.9413 189.33L38.3013 190.938H37.9493ZM38.7811 190.938V188.138H39.0251L40.9571 190.57H40.8291V188.138H41.1211V190.938H40.8771L38.9491 188.506H39.0771V190.938H38.7811ZM43.163 190.962C42.8057 190.962 42.5243 190.859 42.319 190.654C42.1137 190.449 42.011 190.145 42.011 189.742V188.138H42.307V189.73C42.307 190.061 42.3817 190.305 42.531 190.462C42.6803 190.619 42.891 190.698 43.163 190.698C43.4377 190.698 43.6497 190.619 43.799 190.462C43.9483 190.305 44.023 190.061 44.023 189.73V188.138H44.311V189.742C44.311 190.145 44.2083 190.449 44.003 190.654C43.8003 190.859 43.5203 190.962 43.163 190.962Z" fill="white"/>
<path d="M306.114 143.353L305.7 213.768M305.7 213.768L341.383 182.703L343.043 135.483M305.7 213.768L227.694 189.744L224.79 136.726" stroke="white" stroke-opacity="0.81"/>
<path d="M224.79 123.885L267.527 106.074M224.79 123.885L196.99 111.045L241.387 93.648L267.527 106.074M224.79 123.885L197.82 129.684L279.974 149.98L305.7 143.353M224.79 123.885L268.357 134.368M267.527 106.074L281.634 84.5355H314.828L357.15 90.3344L343.043 119.329M267.527 106.074L343.043 119.329M267.527 106.074L268.357 134.368M305.7 143.353L343.043 119.329M305.7 143.353L345.117 134.655L377.066 111.045L343.043 119.329M305.7 143.353L268.357 134.368" stroke="white" stroke-opacity="0.81"/>
<defs>
<filter id="filter0_d_134_66" x="38.3919" y="199.172" width="12.83" height="9.4823" filterUnits="userSpaceOnUse" color-interpolation-filters="sRGB">
<feFlood flood-opacity="0" result="BackgroundImageFix"/>
<feColorMatrix in="SourceAlpha" type="matrix" values="0 0 0 0 0 0 0 0 0 0 0 0 0 0 0 0 0 0 127 0" result="hardAlpha"/>
<feOffset dy="4"/>
<feGaussianBlur stdDeviation="2"/>
<feComposite in2="hardAlpha" operator="out"/>
<feColorMatrix type="matrix" values="0 0 0 0 0 0 0 0 0 0 0 0 0 0 0 0 0 0 0.25 0"/>
<feBlend mode="normal" in2="BackgroundImageFix" result="effect1_dropShadow_134_66"/>
<feBlend mode="normal" in="SourceGraphic" in2="effect1_dropShadow_134_66" result="shape"/>
</filter>
<filter id="filter1_d_134_66" x="38.0641" y="200.117" width="9.64624" height="22.9056" filterUnits="userSpaceOnUse" color-interpolation-filters="sRGB">
<feFlood flood-opacity="0" result="BackgroundImageFix"/>
<feColorMatrix in="SourceAlpha" type="matrix" values="0 0 0 0 0 0 0 0 0 0 0 0 0 0 0 0 0 0 127 0" result="hardAlpha"/>
<feOffset dy="4"/>
<feGaussianBlur stdDeviation="2"/>
<feComposite in2="hardAlpha" operator="out"/>
<feColorMatrix type="matrix" values="0 0 0 0 0 0 0 0 0 0 0 0 0 0 0 0 0 0 0.25 0"/>
<feBlend mode="normal" in2="BackgroundImageFix" result="effect1_dropShadow_134_66"/>
<feBlend mode="normal" in="SourceGraphic" in2="effect1_dropShadow_134_66" result="shape"/>
</filter>
<filter id="filter2_d_134_66" x="35.3607" y="201.122" width="11.3959" height="9.67807" filterUnits="userSpaceOnUse" color-interpolation-filters="sRGB">
<feFlood flood-opacity="0" result="BackgroundImageFix"/>
<feColorMatrix in="SourceAlpha" type="matrix" values="0 0 0 0 0 0 0 0 0 0 0 0 0 0 0 0 0 0 127 0" result="hardAlpha"/>
<feOffset dy="4"/>
<feGaussianBlur stdDeviation="2"/>
<feComposite in2="hardAlpha" operator="out"/>
<feColorMatrix type="matrix" values="0 0 0 0 0 0 0 0 0 0 0 0 0 0 0 0 0 0 0.25 0"/>
<feBlend mode="normal" in2="BackgroundImageFix" result="effect1_dropShadow_134_66"/>
<feBlend mode="normal" in="SourceGraphic" in2="effect1_dropShadow_134_66" result="shape"/>
</filter>
<filter id="filter3_d_134_66" x="31.26" y="194.164" width="12.6533" height="17.1525" filterUnits="userSpaceOnUse" color-interpolation-filters="sRGB">
<feFlood flood-opacity="0" result="BackgroundImageFix"/>
<feColorMatrix in="SourceAlpha" type="matrix" values="0 0 0 0 0 0 0 0 0 0 0 0 0 0 0 0 0 0 127 0" result="hardAlpha"/>
<feOffset dy="4"/>
<feGaussianBlur stdDeviation="2"/>
<feComposite in2="hardAlpha" operator="out"/>
<feColorMatrix type="matrix" values="0 0 0 0 0 0 0 0 0 0 0 0 0 0 0 0 0 0 0.25 0"/>
<feBlend mode="normal" in2="BackgroundImageFix" result="effect1_dropShadow_134_66"/>
<feBlend mode="normal" in="SourceGraphic" in2="effect1_dropShadow_134_66" result="shape"/>
</filter>
<filter id="filter4_d_134_66" x="30.8588" y="194.369" width="10.006" height="32.5387" filterUnits="userSpaceOnUse" color-interpolation-filters="sRGB">
<feFlood flood-opacity="0" result="BackgroundImageFix"/>
<feColorMatrix in="SourceAlpha" type="matrix" values="0 0 0 0 0 0 0 0 0 0 0 0 0 0 0 0 0 0 127 0" result="hardAlpha"/>
<feOffset dy="4"/>
<feGaussianBlur stdDeviation="2"/>
<feComposite in2="hardAlpha" operator="out"/>
<feColorMatrix type="matrix" values="0 0 0 0 0 0 0 0 0 0 0 0 0 0 0 0 0 0 0.25 0"/>
<feBlend mode="normal" in2="BackgroundImageFix" result="effect1_dropShadow_134_66"/>
<feBlend mode="normal" in="SourceGraphic" in2="effect1_dropShadow_134_66" result="shape"/>
</filter>
<filter id="filter5_d_134_66" x="28.164" y="193.872" width="11.6409" height="9.64056" filterUnits="userSpaceOnUse" color-interpolation-filters="sRGB">
<feFlood flood-opacity="0" result="BackgroundImageFix"/>
<feColorMatrix in="SourceAlpha" type="matrix" values="0 0 0 0 0 0 0 0 0 0 0 0 0 0 0 0 0 0 127 0" result="hardAlpha"/>
<feOffset dy="4"/>
<feGaussianBlur stdDeviation="2"/>
<feComposite in2="hardAlpha" operator="out"/>
<feColorMatrix type="matrix" values="0 0 0 0 0 0 0 0 0 0 0 0 0 0 0 0 0 0 0.25 0"/>
<feBlend mode="normal" in2="BackgroundImageFix" result="effect1_dropShadow_134_66"/>
<feBlend mode="normal" in="SourceGraphic" in2="effect1_dropShadow_134_66" result="shape"/>
</filter>
<filter id="filter6_d_134_66" x="25.5581" y="194.819" width="11.3109" height="29.1552" filterUnits="userSpaceOnUse" color-interpolation-filters="sRGB">
<feFlood flood-opacity="0" result="BackgroundImageFix"/>
<feColorMatrix in="SourceAlpha" type="matrix" values="0 0 0 0 0 0 0 0 0 0 0 0 0 0 0 0 0 0 127 0" result="hardAlpha"/>
<feOffset dy="4"/>
<feGaussianBlur stdDeviation="2"/>
<feComposite in2="hardAlpha" operator="out"/>
<feColorMatrix type="matrix" values="0 0 0 0 0 0 0 0 0 0 0 0 0 0 0 0 0 0 0.25 0"/>
<feBlend mode="normal" in2="BackgroundImageFix" result="effect1_dropShadow_134_66"/>
<feBlend mode="normal" in="SourceGraphic" in2="effect1_dropShadow_134_66" result="shape"/>
</filter>
<filter id="filter7_d_134_66" x="17.8155" y="197.217" width="18.4791" height="11.9057" filterUnits="userSpaceOnUse" color-interpolation-filters="sRGB">
<feFlood flood-opacity="0" result="BackgroundImageFix"/>
<feColorMatrix in="SourceAlpha" type="matrix" values="0 0 0 0 0 0 0 0 0 0 0 0 0 0 0 0 0 0 127 0" result="hardAlpha"/>
<feOffset dy="4"/>
<feGaussianBlur stdDeviation="2"/>
<feComposite in2="hardAlpha" operator="out"/>
<feColorMatrix type="matrix" values="0 0 0 0 0 0 0 0 0 0 0 0 0 0 0 0 0 0 0.25 0"/>
<feBlend mode="normal" in2="BackgroundImageFix" result="effect1_dropShadow_134_66"/>
<feBlend mode="normal" in="SourceGraphic" in2="effect1_dropShadow_134_66" result="shape"/>
</filter>
<filter id="filter8_d_134_66" x="34.9529" y="202.239" width="9.01941" height="21.6953" filterUnits="userSpaceOnUse" color-interpolation-filters="sRGB">
<feFlood flood-opacity="0" result="BackgroundImageFix"/>
<feColorMatrix in="SourceAlpha" type="matrix" values="0 0 0 0 0 0 0 0 0 0 0 0 0 0 0 0 0 0 127 0" result="hardAlpha"/>
<feOffset dy="4"/>
<feGaussianBlur stdDeviation="2"/>
<feComposite in2="hardAlpha" operator="out"/>
<feColorMatrix type="matrix" values="0 0 0 0 0 0 0 0 0 0 0 0 0 0 0 0 0 0 0.25 0"/>
<feBlend mode="normal" in2="BackgroundImageFix" result="effect1_dropShadow_134_66"/>
<feBlend mode="normal" in="SourceGraphic" in2="effect1_dropShadow_134_66" result="shape"/>
</filter>
</defs>
</svg>
