<svg width="390" height="232" viewBox="0 0 390 232" fill="none" xmlns="http://www.w3.org/2000/svg">
<rect width="390" height="231.205" rx="29" fill="#16382B"/>
<path d="M99 113.521V58L128.362 67.0822L144.654 72.7371L165.959 78.3921L189.592 69.9953H196.574L208.391 74.6221L198.902 79.5916L192.635 81.6479L186.369 89.0165L183.863 108.723L185.474 116.777L191.024 120.033L194.426 120.547L201.408 118.148L204.094 115.578L207.495 103.925L223.071 103.411L262.638 135.284L265.324 138.883L264.25 144.366L260.132 146.937L254.403 145.052L232.56 126.545L230.77 128.258L254.403 149.679L255.298 153.963L252.791 157.39L248.853 158.418L243.84 156.704L221.639 137.683L219.67 139.911L238.827 156.704L240.438 160.646L239.901 163.216L237.931 165.444L235.246 166.643L230.054 165.444L211.076 149.165L208.749 151.392L206.242 151.906L204.989 146.937L202.661 144.366L199.26 141.625L192.635 141.625L190.845 136.826L184.4 132.371H179.566L178.85 125.688L175.09 123.118L167.929 121.575L162.558 124.831L155.933 131.857L99 113.521Z" stroke="url(#paint0_linear_293_2)" stroke-width="2"/>
<path d="M197.648 82.848L191.382 87.9889L188.338 99.9842L187.264 112.494L188.338 115.578L192.456 117.292L198.185 116.606L201.229 114.036L205.526 101.012L223.608 99.9842L264.787 133.057L292 121.404L291.105 68.1109L253.149 79.2494L227.368 72.3949L220.565 71.5381L197.648 82.848Z" stroke="url(#paint1_linear_293_2)" stroke-width="2"/>
<path d="M164.706 126.716L156.649 135.799V141.282L160.23 144.709L163.453 145.395L167.571 144.024L175.806 133.914L176.343 129.458L174.732 126.716L172.225 124.66H168.287L164.706 126.716Z" stroke="url(#paint2_linear_293_2)" stroke-width="2"/>
<path d="M188.697 144.709L180.461 154.306L176.343 155.848L172.405 154.991L169.719 152.763L169.003 149.336L170.256 145.395L178.492 135.97L183.505 134.942L187.444 137.17L188.697 140.083V144.709Z" stroke="url(#paint3_linear_293_2)" stroke-width="2"/>
<path d="M202.661 154.134L194.068 164.415L190.129 165.272L186.011 164.415L183.684 162.53L182.968 158.76L184.221 155.162L192.098 145.908L197.111 144.709L201.587 146.765L202.661 149.507V154.134Z" stroke="url(#paint4_linear_293_2)" stroke-width="2"/>
<path d="M215.91 163.216L208.032 172.64L203.377 174.183L200.692 173.326L197.648 170.756L197.111 167.5L198.364 163.901L205.526 154.99L210.539 153.962L214.657 156.19L215.91 158.589V163.216Z" stroke="url(#paint5_linear_293_2)" stroke-width="2"/>
<path d="M219.55 164.256V161L224.921 165.284L226.174 167.169V170.254V171.282L223.668 174.709H217.581L214 171.282L217.581 167.169L219.55 164.256Z" stroke="#519872" stroke-width="2"/>
<defs>
<linearGradient id="paint0_linear_293_2" x1="182.162" y1="58" x2="182.162" y2="166.643" gradientUnits="userSpaceOnUse">
<stop offset="0.40625" stop-color="#FFCE0C"/>
<stop offset="1" stop-color="#519872"/>
</linearGradient>
<linearGradient id="paint1_linear_293_2" x1="239.632" y1="68.1109" x2="239.632" y2="133.057" gradientUnits="userSpaceOnUse">
<stop offset="0.40625" stop-color="#FFCE0C"/>
<stop offset="1" stop-color="#569851"/>
</linearGradient>
<linearGradient id="paint2_linear_293_2" x1="166.496" y1="124.66" x2="166.496" y2="145.395" gradientUnits="userSpaceOnUse">
<stop offset="0.40625" stop-color="#FFCE0C"/>
<stop offset="1" stop-color="#519872"/>
</linearGradient>
<linearGradient id="paint3_linear_293_2" x1="178.85" y1="134.942" x2="178.85" y2="155.848" gradientUnits="userSpaceOnUse">
<stop offset="0.40625" stop-color="#FFCE0C"/>
<stop offset="1" stop-color="#519872"/>
</linearGradient>
<linearGradient id="paint4_linear_293_2" x1="192.815" y1="144.709" x2="192.815" y2="165.272" gradientUnits="userSpaceOnUse">
<stop offset="0.40625" stop-color="#FFCE0C"/>
<stop offset="1" stop-color="#519872"/>
</linearGradient>
<linearGradient id="paint5_linear_293_2" x1="206.511" y1="153.962" x2="206.511" y2="174.183" gradientUnits="userSpaceOnUse">
<stop offset="0.40625" stop-color="#FFCE0C"/>
<stop offset="1" stop-color="#519872"/>
</linearGradient>
</defs>
</svg>
