<svg width="122" height="18" viewBox="0 0 122 18" fill="none" xmlns="http://www.w3.org/2000/svg">
<path d="M0.768344 17V0.199999H15.2403V17H12.8883V1.664L13.4643 2.288H2.54434L3.14434 1.664V17H0.768344ZM28.0393 17.192C26.7593 17.192 25.5673 16.976 24.4633 16.544C23.3753 16.112 22.4313 15.512 21.6313 14.744C20.8313 13.96 20.2073 13.048 19.7593 12.008C19.3113 10.968 19.0873 9.832 19.0873 8.6C19.0873 7.368 19.3113 6.232 19.7593 5.192C20.2073 4.152 20.8313 3.248 21.6313 2.48C22.4313 1.696 23.3753 1.088 24.4633 0.655999C25.5513 0.224 26.7433 0.0079999 28.0393 0.0079999C29.3193 0.0079999 30.4953 0.224 31.5673 0.655999C32.6553 1.072 33.5993 1.672 34.3993 2.456C35.2153 3.224 35.8393 4.128 36.2713 5.168C36.7193 6.208 36.9433 7.352 36.9433 8.6C36.9433 9.848 36.7193 10.992 36.2713 12.032C35.8393 13.072 35.2153 13.984 34.3993 14.768C33.5993 15.536 32.6553 16.136 31.5673 16.568C30.4953 16.984 29.3193 17.192 28.0393 17.192ZM28.0393 15.056C28.9673 15.056 29.8233 14.896 30.6073 14.576C31.4073 14.256 32.0953 13.808 32.6713 13.232C33.2633 12.64 33.7193 11.952 34.0393 11.168C34.3753 10.384 34.5433 9.528 34.5433 8.6C34.5433 7.672 34.3753 6.816 34.0393 6.032C33.7193 5.248 33.2633 4.568 32.6713 3.992C32.0953 3.4 31.4073 2.944 30.6073 2.624C29.8233 2.304 28.9673 2.144 28.0393 2.144C27.0953 2.144 26.2233 2.304 25.4233 2.624C24.6393 2.944 23.9513 3.4 23.3593 3.992C22.7673 4.568 22.3033 5.248 21.9673 6.032C21.6473 6.816 21.4873 7.672 21.4873 8.6C21.4873 9.528 21.6473 10.384 21.9673 11.168C22.3033 11.952 22.7673 12.64 23.3593 13.232C23.9513 13.808 24.6393 14.256 25.4233 14.576C26.2233 14.896 27.0953 15.056 28.0393 15.056ZM48.335 17.192C47.055 17.192 45.871 16.984 44.783 16.568C43.711 16.136 42.775 15.536 41.975 14.768C41.191 13.984 40.575 13.072 40.127 12.032C39.679 10.992 39.455 9.848 39.455 8.6C39.455 7.352 39.679 6.208 40.127 5.168C40.575 4.128 41.199 3.224 41.999 2.456C42.799 1.672 43.735 1.072 44.807 0.655999C45.895 0.224 47.079 0.0079999 48.359 0.0079999C49.655 0.0079999 50.847 0.232 51.935 0.68C53.039 1.112 53.975 1.76 54.743 2.624L53.183 4.136C52.543 3.464 51.823 2.968 51.023 2.648C50.223 2.312 49.367 2.144 48.455 2.144C47.511 2.144 46.631 2.304 45.815 2.624C45.015 2.944 44.319 3.392 43.727 3.968C43.135 4.544 42.671 5.232 42.335 6.032C42.015 6.816 41.855 7.672 41.855 8.6C41.855 9.528 42.015 10.392 42.335 11.192C42.671 11.976 43.135 12.656 43.727 13.232C44.319 13.808 45.015 14.256 45.815 14.576C46.631 14.896 47.511 15.056 48.455 15.056C49.367 15.056 50.223 14.896 51.023 14.576C51.823 14.24 52.543 13.728 53.183 13.04L54.743 14.552C53.975 15.416 53.039 16.072 51.935 16.52C50.847 16.968 49.647 17.192 48.335 17.192ZM56.8357 17.192C56.5957 17.192 56.3557 17.176 56.1157 17.144C55.8757 17.112 55.6117 17.064 55.3237 17L55.4917 14.864C55.7477 14.928 56.0037 14.96 56.2597 14.96C56.9637 14.96 57.5237 14.68 57.9397 14.12C58.3557 13.56 58.6597 12.712 58.8517 11.576C59.0597 10.44 59.1957 9.008 59.2597 7.28L59.5237 0.199999H71.3557V17H69.0037V1.664L69.5797 2.288H61.0597L61.5877 1.64L61.3957 7.208C61.3477 8.872 61.2357 10.328 61.0597 11.576C60.8837 12.824 60.6197 13.864 60.2677 14.696C59.9157 15.528 59.4597 16.152 58.8997 16.568C58.3557 16.984 57.6677 17.192 56.8357 17.192ZM76.5407 14.888C77.3727 15.192 78.1407 15.272 78.8447 15.128C79.5487 14.968 80.1807 14.432 80.7407 13.52L81.5567 12.224L81.7967 11.96L87.9647 0.199999H90.3407L82.8767 14.024C82.3167 15.08 81.6607 15.88 80.9087 16.424C80.1727 16.952 79.3727 17.24 78.5087 17.288C77.6607 17.352 76.7967 17.192 75.9167 16.808L76.5407 14.888ZM81.7247 14.096L74.3567 0.199999H76.9247L83.0447 12.176L81.7247 14.096ZM92.8308 17V0.199999H103.847L103.823 2.288H94.6068L95.1828 1.688L95.2068 17H92.8308ZM106.706 17V0.199999H109.082V13.16L119.018 0.199999H121.226V17H118.874V4.064L108.914 17H106.706Z" fill="url(#paint0_linear_293_5)"/>
<defs>
<linearGradient id="paint0_linear_293_5" x1="61" y1="-12" x2="61" y2="28" gradientUnits="userSpaceOnUse">
<stop stop-color="#FFCE0C"/>
<stop offset="1" stop-color="#519872"/>
</linearGradient>
</defs>
</svg>
