<svg width="177" height="23" viewBox="0 0 177 23" fill="none" xmlns="http://www.w3.org/2000/svg">
<path d="M0.70975 22V5.2H2.67775L10.2137 17.896H9.15775L16.5978 5.2H18.5658L18.5898 22H16.2858L16.2618 8.824H16.8138L10.1898 19.96H9.08575L2.41375 8.824H3.01375V22H0.70975ZM23.8191 22V5.2H26.1951V22H23.8191ZM31.4363 22V5.2H33.8123V18.16L43.7483 5.2H45.9563V22H43.6043V9.064L33.6443 22H31.4363ZM38.6603 4.024C37.3483 4.024 36.3323 3.736 35.6123 3.16C34.9083 2.584 34.5483 1.776 34.5323 0.735999H36.2363C36.2523 1.36 36.4763 1.848 36.9083 2.2C37.3403 2.536 37.9243 2.704 38.6603 2.704C39.3803 2.704 39.9563 2.536 40.3883 2.2C40.8363 1.848 41.0683 1.36 41.0843 0.735999H42.7643C42.7483 1.776 42.3803 2.584 41.6603 3.16C40.9563 3.736 39.9563 4.024 38.6603 4.024ZM57.6394 22V5.2H72.1114V22H69.7594V6.664L70.3354 7.288H59.4154L60.0154 6.664V22H57.6394ZM77.3504 22V5.2H83.9024C85.3744 5.2 86.6304 5.432 87.6704 5.896C88.7104 6.36 89.5104 7.032 90.0704 7.912C90.6304 8.792 90.9104 9.84 90.9104 11.056C90.9104 12.272 90.6304 13.32 90.0704 14.2C89.5104 15.064 88.7104 15.736 87.6704 16.216C86.6304 16.68 85.3744 16.912 83.9024 16.912H78.6704L79.7504 15.784V22H77.3504ZM79.7504 16.024L78.6704 14.824H83.8304C85.3664 14.824 86.5264 14.496 87.3104 13.84C88.1104 13.184 88.5104 12.256 88.5104 11.056C88.5104 9.856 88.1104 8.928 87.3104 8.272C86.5264 7.616 85.3664 7.288 83.8304 7.288H78.6704L79.7504 6.088V16.024ZM102.043 22.192C100.763 22.192 99.5712 21.976 98.4672 21.544C97.3792 21.112 96.4352 20.512 95.6352 19.744C94.8352 18.96 94.2112 18.048 93.7632 17.008C93.3152 15.968 93.0912 14.832 93.0912 13.6C93.0912 12.368 93.3152 11.232 93.7632 10.192C94.2112 9.152 94.8352 8.248 95.6352 7.48C96.4352 6.696 97.3792 6.088 98.4672 5.656C99.5552 5.224 100.747 5.008 102.043 5.008C103.323 5.008 104.499 5.224 105.571 5.656C106.659 6.072 107.603 6.672 108.403 7.456C109.219 8.224 109.843 9.128 110.275 10.168C110.723 11.208 110.947 12.352 110.947 13.6C110.947 14.848 110.723 15.992 110.275 17.032C109.843 18.072 109.219 18.984 108.403 19.768C107.603 20.536 106.659 21.136 105.571 21.568C104.499 21.984 103.323 22.192 102.043 22.192ZM102.043 20.056C102.971 20.056 103.827 19.896 104.611 19.576C105.411 19.256 106.099 18.808 106.675 18.232C107.267 17.64 107.723 16.952 108.043 16.168C108.379 15.384 108.547 14.528 108.547 13.6C108.547 12.672 108.379 11.816 108.043 11.032C107.723 10.248 107.267 9.568 106.675 8.992C106.099 8.4 105.411 7.944 104.611 7.624C103.827 7.304 102.971 7.144 102.043 7.144C101.099 7.144 100.227 7.304 99.4272 7.624C98.6432 7.944 97.9552 8.4 97.3632 8.992C96.7712 9.568 96.3072 10.248 95.9712 11.032C95.6512 11.816 95.4912 12.672 95.4912 13.6C95.4912 14.528 95.6512 15.384 95.9712 16.168C96.3072 16.952 96.7712 17.64 97.3632 18.232C97.9552 18.808 98.6432 19.256 99.4272 19.576C100.227 19.896 101.099 20.056 102.043 20.056ZM123.035 20.872C120.987 20.872 119.235 20.592 117.779 20.032C116.323 19.456 115.211 18.624 114.443 17.536C113.675 16.448 113.291 15.128 113.291 13.576C113.291 12.024 113.675 10.704 114.443 9.616C115.211 8.528 116.323 7.696 117.779 7.12C119.235 6.544 120.987 6.256 123.035 6.256C123.067 6.256 123.123 6.256 123.203 6.256C123.299 6.256 123.387 6.256 123.467 6.256C123.563 6.256 123.619 6.256 123.635 6.256C125.683 6.256 127.427 6.544 128.867 7.12C130.323 7.696 131.435 8.528 132.203 9.616C132.971 10.704 133.355 12.024 133.355 13.576C133.355 15.112 132.971 16.432 132.203 17.536C131.451 18.624 130.355 19.456 128.915 20.032C127.491 20.592 125.763 20.872 123.731 20.872C123.699 20.872 123.627 20.872 123.515 20.872C123.419 20.872 123.323 20.872 123.227 20.872C123.131 20.872 123.067 20.872 123.035 20.872ZM123.299 19C123.331 19 123.371 19 123.419 19C123.467 19 123.491 19 123.491 19C125.123 18.984 126.499 18.776 127.619 18.376C128.739 17.96 129.587 17.352 130.163 16.552C130.755 15.736 131.051 14.736 131.051 13.552C131.051 12.384 130.755 11.4 130.163 10.6C129.571 9.8 128.715 9.192 127.595 8.776C126.491 8.36 125.139 8.152 123.539 8.152C123.523 8.152 123.483 8.152 123.419 8.152C123.371 8.152 123.331 8.152 123.299 8.152C121.651 8.152 120.251 8.36 119.099 8.776C117.963 9.176 117.099 9.776 116.507 10.576C115.915 11.376 115.619 12.376 115.619 13.576C115.619 14.776 115.923 15.776 116.531 16.576C117.139 17.376 118.011 17.984 119.147 18.4C120.299 18.8 121.683 19 123.299 19ZM122.219 22.624V4.576H124.451V22.624H122.219ZM137.046 22V5.2H139.422V22H137.046ZM143.66 22.192C143.42 22.192 143.18 22.176 142.94 22.144C142.7 22.112 142.436 22.064 142.148 22L142.316 19.864C142.572 19.928 142.828 19.96 143.084 19.96C143.788 19.96 144.348 19.68 144.764 19.12C145.18 18.56 145.484 17.712 145.676 16.576C145.884 15.44 146.02 14.008 146.084 12.28L146.348 5.2H158.18V22H155.828V6.664L156.404 7.288H147.884L148.412 6.64L148.22 12.208C148.172 13.872 148.06 15.328 147.884 16.576C147.708 17.824 147.444 18.864 147.092 19.696C146.74 20.528 146.284 21.152 145.724 21.568C145.18 21.984 144.492 22.192 143.66 22.192ZM170.781 11.056C172.765 11.056 174.293 11.504 175.365 12.4C176.437 13.28 176.973 14.6 176.973 16.36C176.973 18.216 176.389 19.624 175.221 20.584C174.069 21.528 172.445 22 170.349 22H163.413V5.2H165.789V11.056H170.781ZM170.253 20.104C171.645 20.104 172.709 19.792 173.445 19.168C174.197 18.544 174.573 17.624 174.573 16.408C174.573 15.224 174.205 14.352 173.469 13.792C172.733 13.232 171.661 12.952 170.253 12.952H165.789V20.104H170.253Z" fill="url(#paint0_linear_273_115)"/>
<defs>
<linearGradient id="paint0_linear_273_115" x1="88" y1="-1" x2="88" y2="28" gradientUnits="userSpaceOnUse">
<stop stop-color="#FFCE0C"/>
<stop offset="1" stop-color="#519872"/>
</linearGradient>
</defs>
</svg>
