<svg width="390" height="232" viewBox="0 0 390 232" fill="none" xmlns="http://www.w3.org/2000/svg">
<rect width="390" height="231.205" rx="29" fill="#16382B"/>
<path d="M174.874 64.4605L174.874 64.4603L174.874 64.4601L174.873 64.4517L174.871 64.4429C173.859 58.1546 174.902 51.5142 178.147 46.4798C181.365 41.4882 186.79 38 194.768 38C202.786 38 208.231 41.4898 211.457 46.4809C214.711 51.5148 215.755 58.1546 214.742 64.4429L214.739 64.4592L214.737 64.4752L214.737 64.4754L214.737 64.4756L214.737 64.4775L214.736 64.4882L214.729 64.536C214.723 64.5794 214.714 64.6455 214.701 64.7327C214.674 64.9072 214.633 65.1663 214.574 65.4979C214.456 66.1613 214.268 67.1136 213.988 68.2582C213.427 70.5514 212.502 73.5962 211.047 76.6302C208.121 82.733 203.2 88.5232 195 88.5232C186.795 88.5232 181.777 82.7258 178.754 76.6189C177.251 73.5835 176.279 70.5377 175.682 68.244C175.384 67.0992 175.181 66.1467 175.053 65.4831C174.989 65.1514 174.944 64.8923 174.915 64.7177C174.9 64.6305 174.89 64.5644 174.883 64.521L174.876 64.4732L174.874 64.4624L174.874 64.4605ZM194.486 109L195.012 109.314L195.531 108.989L216.324 95.958C225.159 96.0438 233.546 100.107 239.757 106.108C246.042 112.18 250 120.139 250 127.775V145.056C249.847 145.098 249.67 145.146 249.471 145.2C248.651 145.422 247.446 145.74 245.913 146.122C242.846 146.886 238.467 147.906 233.222 148.925C222.726 150.965 208.795 153 195 153C180.972 153 167.041 150.965 156.605 148.925C151.39 147.906 147.054 146.887 144.024 146.123C142.51 145.741 141.321 145.423 140.513 145.201C140.32 145.148 140.149 145.101 140 145.059V127.775C140 112.121 154.399 96.4703 173.3 96.32L194.486 109Z" stroke="url(#paint0_linear_273_112)" stroke-width="2"/>
<defs>
<linearGradient id="paint0_linear_273_112" x1="195" y1="37" x2="195" y2="154" gradientUnits="userSpaceOnUse">
<stop stop-color="#FFCE0C"/>
<stop offset="1" stop-color="#519872"/>
</linearGradient>
</defs>
</svg>
